<?xml version="1.0" encoding="UTF-8"?>
<svg id="Layer_3" data-name="Layer 3" xmlns="http://www.w3.org/2000/svg" viewBox="0 0 1028.59 777.54">
  <defs>
    <style>
      .cls-1 {
        fill: #dd7b53;
      }

      .cls-2 {
        fill: #e49263;
      }
    </style>
  </defs>
  <path class="cls-2" d="M492.36,500.46c.29-.17.59-.34.88-.51-.3.17-.59.33-.88.51Z"/>
  <path class="cls-2" d="M491.04,501.3c.29-.19.59-.38.88-.57-.3.19-.59.37-.88.57Z"/>
  <path class="cls-2" d="M493.73,499.68c.28-.15.56-.29.85-.43-.28.14-.57.28-.85.43Z"/>
  <path class="cls-2" d="M496.6,498.32c.23-.1.46-.18.7-.27-.23.09-.47.18-.7.27Z"/>
  <path class="cls-2" d="M495.14,498.97c.26-.12.52-.24.78-.35-.26.11-.52.23-.78.35Z"/>
  <path class="cls-2" d="M489.77,502.2c.28-.21.56-.4.85-.6-.28.2-.57.39-.85.6Z"/>
  <path class="cls-2" d="M483.51,508.35c.2-.25.39-.51.59-.75-.2.25-.4.5-.59.75Z"/>
  <path class="cls-2" d="M498.09,497.75c.2-.07.41-.14.62-.21-.21.07-.41.14-.62.21Z"/>
  <path class="cls-2" d="M482.54,509.67c.2-.28.39-.57.6-.84-.21.28-.4.56-.6.84Z"/>
  <path class="cls-2" d="M488.54,503.16c.25-.2.5-.4.76-.59-.25.2-.51.39-.76.59Z"/>
  <path class="cls-2" d="M487.36,504.18c.19-.17.39-.34.59-.51-.2.17-.39.33-.59.51Z"/>
  <path class="cls-2" d="M484.61,507c.17-.2.33-.39.51-.59-.17.19-.34.39-.51.59Z"/>
  <path class="cls-2" d="M499.59,497.25c.18-.06.37-.1.55-.16-.18.05-.37.1-.55.16Z"/>
  <path class="cls-2" d="M502.64,496.5c.17-.03.35-.06.53-.09-.18.03-.35.06-.53.09Z"/>
  <path class="cls-2" d="M504.17,496.23c.2-.03.41-.05.61-.08-.2.03-.41.05-.61.08Z"/>
  <path class="cls-2" d="M501.11,496.84c.17-.04.34-.08.52-.12-.17.04-.35.08-.52.12Z"/>
  <path class="cls-2" d="M505.71,496.04c.27-.03.55-.04.82-.06-.27.02-.55.04-.82.06Z"/>
  <path class="cls-2" d="M481.68,510.98c.18-.3.37-.59.57-.88-.2.29-.38.59-.57.88Z"/>
  <path class="cls-2" d="M478.69,538.67c-.07-.21-.14-.41-.21-.62.07.21.14.41.21.62Z"/>
  <path class="cls-2" d="M478.22,537.24c-.06-.18-.11-.36-.16-.55.05.18.1.36.16.55Z"/>
  <path class="cls-2" d="M477.81,535.78c-.04-.16-.08-.33-.12-.5.04.17.08.33.12.5Z"/>
  <path class="cls-2" d="M477.48,534.3c-.03-.15-.06-.31-.09-.46.03.15.06.31.09.46Z"/>
  <path class="cls-2" d="M477.21,532.81c-.02-.15-.05-.29-.07-.43.02.15.04.29.07.43Z"/>
  <path class="cls-2" d="M480.27,542.37c-.5-1-.95-2.02-1.35-3.07.4,1.04.85,2.07,1.35,3.07Z"/>
  <path class="cls-2" d="M477.02,531.31c-.01-.14-.03-.28-.05-.41.01.14.03.28.05.41Z"/>
  <path class="cls-2" d="M481.6,544.73c-.21-.34-.42-.69-.62-1.04.2.35.4.69.62,1.04Z"/>
  <path class="cls-2" d="M480.9,543.53c-.19-.35-.38-.7-.57-1.05.18.35.37.71.57,1.05Z"/>
  <path class="cls-2" d="M486.26,505.23s-.03.03-.05.04c-.01.01-.03.03-.04.04.03-.03.06-.06.09-.09Z"/>
  <path class="cls-2" d="M478.48,517.76c.07-.21.14-.41.21-.62-.07.2-.14.41-.21.62Z"/>
  <path class="cls-2" d="M480.9,512.3c.17-.3.33-.59.51-.88-.17.29-.34.58-.51.88Z"/>
  <path class="cls-2" d="M478.99,516.35c.09-.23.18-.47.27-.7-.1.23-.18.46-.27.7Z"/>
  <path class="cls-2" d="M478.04,519.2c.05-.18.1-.37.16-.55-.06.18-.11.37-.16.55Z"/>
  <path class="cls-2" d="M480.19,513.63c.14-.28.28-.57.43-.84-.15.28-.29.56-.43.84Z"/>
  <path class="cls-2" d="M479.56,514.98c.12-.26.23-.52.35-.78-.12.26-.24.52-.35.78Z"/>
  <path class="cls-2" d="M477.1,523.84c.03-.2.05-.41.08-.61-.03.2-.05.41-.08.61Z"/>
  <path class="cls-2" d="M476.83,527.92c0-.53.01-1.06.04-1.58-.03.53-.04,1.06-.04,1.58Z"/>
  <path class="cls-2" d="M476.92,525.59c.02-.27.04-.55.06-.82-.03.27-.04.55-.06.82Z"/>
  <path class="cls-2" d="M477.66,520.68c.04-.17.08-.34.12-.52-.04.17-.08.34-.12.52Z"/>
  <path class="cls-2" d="M476.89,529.78c0-.12-.02-.25-.02-.37,0,.12.02.25.02.37Z"/>
  <path class="cls-2" d="M477.35,522.22c.03-.18.06-.35.09-.53-.03.18-.06.35-.09.53Z"/>
  <path class="cls-2" d="M479.91,514.2c.09-.19.19-.38.28-.57-.09.19-.19.38-.28.57Z"/>
  <path class="cls-2" d="M482.24,510.1c.1-.14.2-.29.3-.43-.1.14-.2.28-.3.43Z"/>
  <path class="cls-2" d="M479.27,515.66c.09-.23.19-.45.29-.68-.1.23-.2.45-.29.68Z"/>
  <path class="cls-2" d="M477.69,535.29c-.08-.33-.15-.65-.21-.98.07.33.14.66.21.98Z"/>
  <path class="cls-2" d="M478.2,518.65c.09-.3.19-.59.29-.89-.1.29-.2.59-.29.89Z"/>
  <path class="cls-2" d="M506.54,495.98c.25-.02.49-.04.74-.05-.25.01-.49.04-.74.05Z"/>
  <path class="cls-2" d="M478.06,536.69c-.09-.3-.17-.61-.25-.91.08.31.16.61.25.91Z"/>
  <path class="cls-2" d="M481.41,511.42c.09-.15.18-.29.27-.44-.09.15-.18.29-.27.44Z"/>
  <path class="cls-2" d="M480.63,512.78c.09-.16.18-.33.27-.49-.09.16-.18.32-.27.49Z"/>
  <path class="cls-2" d="M478.69,517.14c.09-.27.2-.53.3-.79-.1.26-.2.52-.3.79Z"/>
  <path class="cls-2" d="M476.87,526.33c.01-.25.04-.49.05-.74-.02.25-.04.49-.05.74Z"/>
  <path class="cls-2" d="M476.99,524.77c.03-.31.07-.62.11-.93-.04.31-.08.62-.11.93Z"/>
  <path class="cls-2" d="M476.83,527.92c0,.5.01,1,.04,1.49-.02-.5-.04-.99-.04-1.49h0Z"/>
  <path class="cls-2" d="M477.14,532.38c-.05-.36-.09-.71-.13-1.07.04.36.08.71.13,1.07Z"/>
  <path class="cls-2" d="M476.97,530.9c-.03-.37-.06-.75-.08-1.12.02.38.05.75.08,1.12Z"/>
  <path class="cls-2" d="M477.44,521.7c.07-.34.14-.67.22-1.01-.08.34-.15.67-.22,1.01Z"/>
  <path class="cls-2" d="M477.78,520.17c.08-.32.17-.65.26-.97-.09.32-.18.64-.26.97Z"/>
  <path class="cls-2" d="M477.39,533.85c-.06-.34-.12-.69-.17-1.03.05.35.11.69.17,1.03Z"/>
  <path class="cls-2" d="M477.18,523.23c.05-.34.11-.67.17-1.01-.06.33-.12.67-.17,1.01Z"/>
  <path class="cls-2" d="M483.14,508.82c.12-.16.24-.31.37-.47-.12.16-.25.31-.37.47Z"/>
  <path class="cls-2" d="M490.61,501.6c.14-.1.28-.2.42-.3-.14.1-.28.2-.42.3Z"/>
  <path class="cls-2" d="M494.57,499.25c.19-.09.38-.19.57-.28-.19.09-.38.19-.57.28Z"/>
  <path class="cls-2" d="M493.24,499.96c.16-.09.32-.18.49-.27-.16.09-.33.18-.49.27Z"/>
  <path class="cls-2" d="M491.92,500.74c.15-.09.29-.19.44-.27-.15.09-.29.18-.44.27Z"/>
  <path class="cls-2" d="M480.98,543.69c-.03-.05-.06-.11-.09-.16.03.05.06.11.09.16Z"/>
  <path class="cls-2" d="M503.16,496.4c.34-.06.67-.12,1.01-.17-.34.05-.67.11-1.01.17Z"/>
  <path class="cls-2" d="M481.67,544.84s-.05-.08-.07-.11c.02.04.05.08.07.11Z"/>
  <path class="cls-2" d="M498.7,497.54c.3-.1.59-.2.89-.29-.3.09-.59.19-.89.29Z"/>
  <path class="cls-2" d="M495.92,498.62c.23-.1.45-.2.68-.29-.23.09-.45.2-.68.29Z"/>
  <path class="cls-2" d="M478.48,538.05c-.09-.27-.18-.54-.26-.81.08.27.17.54.26.81Z"/>
  <path class="cls-2" d="M497.3,498.05c.26-.1.52-.2.79-.3-.27.09-.53.2-.79.3Z"/>
  <path class="cls-2" d="M485.12,506.42c.34-.37.69-.74,1.05-1.1-.36.36-.71.73-1.05,1.1Z"/>
  <path class="cls-2" d="M484.1,507.6c.17-.2.34-.4.51-.6-.17.2-.35.4-.51.6Z"/>
  <path class="cls-2" d="M478.92,539.29c-.08-.21-.16-.41-.23-.62.07.21.16.41.23.62Z"/>
  <path class="cls-2" d="M501.63,496.72c.34-.08.67-.15,1.01-.22-.34.07-.68.14-1.01.22Z"/>
  <path class="cls-2" d="M486.26,505.23c.36-.36.73-.71,1.1-1.05-.38.34-.74.69-1.1,1.05Z"/>
  <path class="cls-2" d="M489.3,502.56c.16-.12.31-.25.47-.36-.16.12-.31.24-.47.36Z"/>
  <path class="cls-2" d="M500.14,497.1c.32-.09.64-.18.97-.26-.32.08-.65.17-.97.26Z"/>
  <path class="cls-2" d="M504.78,496.16c.31-.04.62-.08.93-.11-.31.03-.62.07-.93.11Z"/>
  <path class="cls-2" d="M480.33,542.48s-.04-.07-.05-.11c.02.04.04.07.05.11Z"/>
  <path class="cls-2" d="M487.95,503.67c.2-.17.39-.35.6-.51-.2.17-.4.34-.6.51Z"/>
  <path class="cls-2" d="M590.05,439.35c-1.7-19.45-2.96-25.87-7.66-37.33-2.32.71-4.84,1.51-7.58,2.46-3.13,1.08-5.63,2.33-7.63,3.72-2.49.76-5.23,1.63-8.21,2.66-4.02,1.39-7.01,3.06-9.21,4.98,3.1,9.76,5.41,18.8,6.12,25.69-.19,5.77-2.74,13.77-6.46,22.45-5.61,13.09-13.9,27.75-20.83,38.71-1.72-1.35-3.54-2.49-5.44-3.44-.04-.02-.07-.04-.11-.06-.36-.18-.72-.35-1.08-.51-.06-.03-.12-.05-.17-.08-.47-.21-.95-.41-1.44-.59-.49-.19-.98-.36-1.47-.52-.25-.08-.5-.17-.76-.24-.18-.06-.37-.1-.55-.16-.29-.08-.59-.16-.88-.24-.17-.04-.34-.08-.51-.12-.32-.07-.63-.14-.95-.21-.16-.03-.32-.06-.48-.09-.33-.06-.66-.12-.99-.17-.15-.02-.31-.05-.46-.07-.34-.05-.68-.09-1.02-.12-.15-.02-.3-.03-.45-.05-.36-.03-.72-.06-1.08-.08-.13,0-.26-.02-.4-.03-.49-.02-.98-.04-1.47-.04h0c-.53,0-1.06.01-1.58.04-.25.01-.49.03-.74.05-.27.02-.55.04-.82.06-.31.03-.62.07-.93.11-.2.03-.41.05-.61.08-.34.05-.67.11-1.01.17-.18.03-.35.06-.53.09-.34.07-.67.14-1.01.22-.17.04-.35.08-.52.12-.32.08-.64.17-.97.26-.18.05-.37.1-.55.16-.3.09-.59.19-.89.29-.21.07-.41.14-.62.21-.26.09-.53.2-.79.3-.23.09-.47.18-.7.27-.23.09-.45.2-.68.29-.26.12-.52.23-.78.35-.19.09-.38.19-.57.28-.28.14-.57.28-.85.43-.16.09-.33.18-.49.27-.3.17-.59.33-.88.51-.15.09-.29.18-.44.27-.3.19-.59.37-.88.57-.14.1-.28.2-.42.3-.28.2-.57.4-.85.6-.16.12-.31.24-.47.36-.25.2-.51.39-.76.59-.2.17-.4.34-.6.51-.2.17-.4.34-.59.51-.37.34-.74.69-1.1,1.05-.03.03-.06.06-.09.09-.36.36-.71.73-1.05,1.1-.17.19-.34.39-.51.59-.17.2-.35.4-.51.6-.2.25-.4.5-.59.75-.12.16-.25.31-.37.47-.21.28-.4.56-.6.84-.1.14-.2.28-.3.43-.19.29-.38.59-.57.88-.09.15-.19.29-.27.44-.17.29-.34.58-.51.88-.09.16-.18.32-.27.49-.15.28-.29.56-.43.84-.09.19-.19.38-.28.57-.12.26-.24.52-.35.78-.1.23-.2.45-.29.68-.1.23-.18.46-.27.7-.1.26-.2.53-.3.79-.07.2-.14.41-.21.62-.1.3-.2.59-.29.89-.06.18-.1.37-.16.55-.09.32-.18.64-.26.97-.04.17-.08.34-.12.52-.08.34-.15.67-.22,1.01-.03.17-.06.35-.09.53-.06.33-.12.67-.17,1.01-.03.2-.05.41-.08.61-.04.31-.08.62-.11.93-.03.27-.04.55-.06.82-.02.25-.04.49-.05.74-.03.53-.04,1.05-.04,1.58,0,.5.01.99.04,1.49,0,.12.02.25.02.37.02.37.05.75.08,1.12.01.14.03.28.05.41.04.36.08.71.13,1.07.02.15.04.29.07.43.05.34.11.69.17,1.03.03.15.06.31.09.46.07.33.14.66.21.98.04.17.08.33.12.5.08.3.16.61.25.91.05.18.1.37.16.55.08.27.17.54.26.81.07.21.14.42.21.62.07.21.16.41.23.62.4,1.05.85,2.08,1.35,3.07.02.04.04.07.05.11.18.36.37.71.57,1.05.03.05.06.11.09.16.2.35.4.7.62,1.04.02.04.05.08.07.11.33.54.69,1.06,1.06,1.58.08.11.16.21.23.31.3.41.61.82.93,1.23.01.02.03.04.04.06h0c.71.88,1.46,1.73,2.27,2.54,12.51,12.51,32.79,12.51,45.29,0,.88-.88,1.69-1.8,2.45-2.76,0,0,0,0,0,0,5.7-2.05,10-7.05,16.68-16.55,2.4-3.41,4.91-7.19,7.42-11.15,2.98-4.7,5.97-9.68,8.79-14.66,15.45-27.26,23.28-48.99,23.28-64.61v-.74l-.07-.74Z"/>
  <path class="cls-1" d="M447.54,545.58c-11.87,0-22.22-6.46-27.75-16.06-2.71-4.7-4.27-10.15-4.27-15.97,0-8.7,3.48-16.59,9.11-22.37-.03-.04-.06-.09-.09-.13-3.08-4.63-6.63-10.33-10.2-16.5-4.69-8.12-9.41-17.05-13.13-25.46-2.11-4.77-3.9-9.36-5.18-13.54-1.25-4.06-2-7.73-2.11-10.77.55-5.32,2.05-11.91,4.13-19.13-.49-.82-1.05-1.41-1.67-1.72-15.7-7.7-26.31-7.75-30.28-11.63-3.24,8.23-5.1,15.88-6.36,30.3l-.06.74v.74c0,15.4,7.62,36.75,22.63,63.49.21.37.42.74.63,1.12,5.15,9.07,10.82,18.12,16.01,25.52.07.09.13.19.2.29,1.14,1.61,2.2,3.08,3.21,4.45-.07.86-.11,1.73-.11,2.61,0,12.43,7.08,23.19,17.43,28.5,4.38,2.25,9.34,3.53,14.6,3.53,4.57,0,8.9-.96,12.83-2.68,1.83-.8,3.57-1.76,5.2-2.87,1.67-1.14,3.23-2.43,4.65-3.86-2.99.92-6.15,1.41-9.44,1.41Z"/>
  <path class="cls-2" d="M434.3,489.52c-3.29,0-6.45.5-9.44,1.41-.08.08-.15.16-.23.24-5.64,5.78-9.11,13.67-9.11,22.37,0,5.82,1.56,11.27,4.27,15.97,5.53,9.6,15.88,16.06,27.75,16.06,3.29,0,6.45-.5,9.44-1.41,5.78-5.8,9.34-13.79,9.34-22.62,0-17.69-14.33-32.03-32.02-32.03Z"/>
</svg>