<?xml version="1.0" encoding="UTF-8"?>
<svg id="Layer_3" data-name="Layer 3" xmlns="http://www.w3.org/2000/svg" viewBox="0 0 1028.59 777.54">
  <defs>
    <style>
      .cls-1 {
        fill: #dd7b53;
      }

      .cls-2 {
        fill: #e49263;
      }
    </style>
  </defs>
  <path class="cls-1" d="M397.9,411.28l-1-8.1c-11.18-3.54-21.26-7.38-28-11.27-2.41-1.87-4.93-4.63-7.5-8.02-11.5-15.19-23.74-42.9-29.31-58.5,2.39-1.01,4.67-2.31,6.78-3.9,3.05-2.31,5.75-5.2,7.92-8.67,8.43-13.49,5.5-31.46-6.77-41.58-7.47-6.16-16.74-8.35-25.46-6.97-8.72,1.39-16.88,6.36-22.06,14.55-18.79,29.68-10.14,30.08,2.47,38.65.13,4.56,1.67,9.98,4.3,17.62,2.96,8.62,7.03,18.65,11.41,28.26.18.39.36.79.54,1.17,12.86,27.84,25.7,46.52,38.18,55.55l.6.44.64.39c12.43,7.43,19.37,8.99,27.64,10,11.36,1.39,21.02-8.25,19.62-19.61Z"/>
  <path class="cls-2" d="M334.56,277.81c-7.47-6.16-16.74-8.35-25.46-6.97-3.04,2.3-5.73,5.18-7.9,8.64-8.44,13.47-5.55,31.41,6.67,41.56,7.47,6.2,16.79,8.41,25.54,7.03,3.05-2.31,5.75-5.2,7.92-8.67,8.43-13.49,5.5-31.46-6.77-41.58Z"/>
  <path class="cls-2" d="M636.7,307.61c1.08-9.37-1.97-19.13-9.16-26.32-12.51-12.51-32.79-12.51-45.29,0s-12.51,32.79,0,45.29c5.26,5.26,11.9,8.3,18.76,9.14-4.73,21.04-14.05,51.97-23.95,62.54-6.47,5.26-16.76,11.09-28.17,16.71,1.52,16.14,18.18,26.44,33.18,20.3,5.04-2.06,10.44-5.27,17.61-11.29l.57-.48.53-.53c11.04-11.04,20.88-31.95,29.23-62.14,2.81-10.17,5.23-20.73,6.79-29.71,1.99-11.44,2.49-18.02-.1-23.5Z"/>
</svg>