<?xml version="1.0" encoding="UTF-8"?>
<svg id="Layer_3" data-name="Layer 3" xmlns="http://www.w3.org/2000/svg" viewBox="0 0 1028.59 777.54">
  <defs>
    <style>
      .cls-1 {
        fill: #fff;
        opacity: .33;
        stroke: #fff;
        stroke-width: 2px;
      }

      .cls-1, .cls-2, .cls-3 {
        stroke-miterlimit: 10;
      }

      .cls-4 {
        fill: #231f20;
      }

      .cls-2 {
        fill: none;
        stroke: #231f20;
      }

      .cls-5 {
        fill: #443c3e;
      }

      .cls-3 {
        stroke: #2b2929;
      }

      .cls-3, .cls-6 {
        fill: #a8a8a8;
      }

      .cls-7 {
        fill: #2b2929;
      }
    </style>
  </defs>
  <g>
    <g>
      <path class="cls-2" d="M105.51,624.08c-.35-.23-.69-.47-1.04-.71"/>
      <path class="cls-3" d="M204.63,537.17c0,25.99-10.23.51-19.32.51s-20.16.75-21.07-15.81c.99-5.55,3.03-15.63,9.73-20.88,9.09,0,30.65,10.2,30.65,36.18h.01Z"/>
      <path class="cls-3" d="M241.67,557.37c-18.69,18.06-6.21-8.14-11.36-15.64s-30.71-15.47,1.1-26.32c5.14-2.33,15.1-6.56,23.23-4.02,5.15,7.5,6.01,27.63-12.97,45.97h0Z"/>
      <path class="cls-6" d="M257.12,563.6c-5.34,17.55-29.52,28.57-50.31,28.57-17.03,0-48.39-21.53-48.39-41.44s33.24-33.58,50.27-33.58,49.12,33.58,48.44,46.45h-.01Z"/>
      <path class="cls-3" d="M216.15,625.73c.59,7.63-2.55,8.3-14.84,9.24s-22.73-4.48-23.32-12.11c-.59-7.63,8.9-14.58,21.2-15.53,12.29-.94,16.38,10.76,16.97,18.39h0Z"/>
      <ellipse class="cls-6" cx="168.37" cy="617.3" rx="22.2" ry="11.93" transform="translate(-46.76 14.7) rotate(-4.39)"/>
      <path class="cls-5" d="M231.15,528.04c-.2.55-.58,1.03-1.07,1.32-1.22.71-2.66.21-3.42-.9-2.03-2.98-4.85-5.28-8.05-6.87-1.95-.97-4.05-1.68-6.19-2.11-3.85-.77-7.83-.54-11.64.4-2.64.64-5.21,1.63-7.59,2.87h0c-1.75.92-3.38-.36-3.71-1.82-.21-.92.09-1.91,1.19-2.49,1.71-.89,3.48-1.67,5.29-2.3.41-.15.82-.29,1.24-.41.31-.11.63-.21.95-.29.26-.08.51-.15.77-.22h.01c.43-.11.86-.22,1.29-.31.16-.04.32-.08.49-.11.14-.03.28-.06.42-.09,4.14-.81,8.41-.89,12.62-.05,2.65.53,5.2,1.44,7.57,2.71.73.38,1.44.8,2.13,1.24.9.59,1.77,1.23,2.59,1.92,1.88,1.55,3.55,3.37,4.94,5.41.42.62.44,1.41.17,2.1Z"/>
      <path class="cls-5" d="M256.29,510.78c0,.67-.35,1.4-.88,1.9-.44.42-1.01.68-1.62.6-.32-.04-.64-.08-.96-.11-9.58-.9-18.44,3.02-26.79,7.36-1.06.55-2.11,1.11-3.16,1.67-.03.01-.07.03-.1.05-1.5.8-2.9-.03-3.49-1.2-.15-.31-.25-.65-.27-.98-.06-.81.29-1.63,1.24-2.14.35-.19.7-.37,1.06-.56,10-5.28,20.85-10.58,32.47-9.09.1.01.2.03.29.06h.02c1.21.25,2.19,1.07,2.19,2.44Z"/>
      <path class="cls-5" d="M259.99,530.21c-.81,5.84-2.58,11.93-6.7,16.3-.41.45-.86.89-1.34,1.3-.4.34-.87.57-1.35.66h0c-.41.08-.82.07-1.22-.07-.34-.11-.67-.3-.96-.59-.12-.12-.22-.25-.31-.39-.03-.04-.05-.08-.07-.12-.41-.72-.47-1.67-.1-2.4.11-.24.27-.45.48-.63,4.26-3.69,5.83-9.17,6.65-14.65.78-5.22,1.85-12.35-2.23-16.45-.2-.21-.42-.41-.65-.6h-.01c-.55-.44-.76-1.15-.72-1.84.04-.63.3-1.27.72-1.69.55-.55,1.23-.76,1.91-.7h.02c.57.06,1.14.31,1.61.7,6.18,5.07,5.26,14.12,4.28,21.17Z"/>
      <path class="cls-5" d="M201.91,517.74c-.06.21-.14.43-.26.66-.23.46-.64.8-1.12,1-.54.23-1.17.29-1.7.15-.61-.16-1.07-.49-1.41-.94-.22-.28-.38-.6-.5-.97-.05-.15-.08-.31-.09-.46-.18-.21-.39-.44-.5-.58-.12-.16-.24-.31-.37-.46-.24-.31-.5-.61-.75-.9-.77-.89-1.58-1.74-2.43-2.55-1.64-1.57-3.37-2.96-5.31-4.22-1.94-1.26-4.01-2.39-6.16-3.26-1.08-.44-2.2-.83-3.32-1.16-.9-.26-2.02-.72-3.01-.69-.11.01-.23.02-.34.04-.95.16-1.91-.08-2.51-.74-.26-.27-.46-.6-.57-1.01-.33-1.21.42-2.85,1.75-3.08.34-.06.69-.09,1.03-.11,2.89-.17,5.84.93,8.49,2,2.75,1.11,5.34,2.43,7.83,4.12,2.49,1.69,4.83,3.64,6.91,5.82,1.05,1.1,2.02,2.26,2.94,3.47.22.28.43.56.62.84.66.94,1.1,1.88.78,3.03Z"/>
      <path class="cls-5" d="M176.19,501.17c-.03.34-.14.68-.35.97-.29.41-.57.81-.86,1.22-1.57,2.24-3.11,4.49-4.46,6.86-1.35,2.37-2.66,4.94-3.12,7.65-.39,2.26-.22,4.69.27,6.92.42,1.9,1.18,4.09,2.27,5.3.01.01.02.02.03.03h0c.22.25.38.49.49.75.58,1.35-.25,2.83-1.44,3.37-.69.32-1.51.31-2.23-.25-.12-.08-.24-.19-.36-.32-.54-.58-1.01-1.22-1.43-1.9-2.5-3.99-3.18-9.43-2.62-13.89.85-6.81,5.28-12.81,9.14-18.26.66-.93,1.74-1.45,2.82-1.16.2.06.4.15.6.26.81.47,1.33,1.5,1.25,2.45Z"/>
      <path class="cls-5" d="M169.97,533.66c-.24.26-.48.53-.7.8-1.67,1.92-3.13,4-4.37,6.19-1.06,1.9-1.96,3.88-2.69,5.94-.5,1.41-.92,2.85-1.26,4.32-.02.09-.05.19-.06.28-.02.07-.04.13-.05.2-.22,1.05-1.23,1.74-2.26,1.82-.27.02-.55,0-.82-.07-1-.28-1.63-1.09-1.78-2.03-.01-.03-.01-.07-.02-.1-.03-.31-.02-.63.05-.95.02-.09.04-.18.06-.27.32-1.43.72-2.84,1.19-4.22.71-2.12,1.6-4.18,2.63-6.15.17-.31.33-.61.5-.91h.01c.24-.46.49-.9.76-1.33.35-.6.72-1.18,1.11-1.75.08-.13.17-.26.27-.39.76-1.13,1.59-2.22,2.46-3.27.38-.46.76-.9,1.16-1.34.09-.1.18-.2.27-.3h0c.91-1,2.58-.94,3.51-.04.01.01.02.02.03.03h0c.22.23.39.48.5.74.41.92.21,2.03-.5,2.8Z"/>
      <ellipse class="cls-4" cx="182.37" cy="549.14" rx="13.01" ry="5.26" transform="translate(-391.52 623.07) rotate(-78.97)"/>
      <ellipse class="cls-4" cx="233.81" cy="559.17" rx="13.01" ry="5.26" transform="translate(-359.76 681.68) rotate(-78.97)"/>
      <path class="cls-5" d="M193.51,565.29c-2.27,1.33-4.4,3.14-5.47,5.6s-.83,5.43.87,7.68,4.1,3.38,6.78,3.52c3.06.16,5.9-1.25,8.21-3.14l-3.93-.51c2.46,5.47,9.4,7.63,14.56,4.67,2.36-1.36,4.31-3.74,4.92-6.43.38-1.67.31-3.43-.45-4.99s-2.56-2.61-4.24-1.57c-1.32.82-1.71,2.8-.51,3.93l.07.06c2.35,2.19,5.9-1.34,3.54-3.54l-.07-.06-.51,3.93.11-.06-1.26.34h.18c-.42-.13-.84-.24-1.26-.36l.16.09-.9-.9c1.49,2.32-1.36,5.13-3.46,5.75-2.78.82-5.42-.85-6.55-3.38-.72-1.61-2.82-1.41-3.93-.51-2.07,1.69-5.67,2.66-7.52.11s1.31-4.83,3.19-5.92c2.78-1.62.26-5.95-2.52-4.32h-.01Z"/>
      <path class="cls-5" d="M266.64,577.29c0,.56-.53,1.21-1.13,1.13-3.31-.43-6.62-.8-9.94-1.1-.93-.08-1.85-.16-2.78-.24-1.4-.11-2.79-.2-4.19-.29-1.01-.06-2.02-.12-3.03-.17-8.43-.43-16.87-.43-25.3-.01h-.01c-.32.01-.56-.09-.74-.26-.5-.44-.45-1.4.15-1.81.16-.11.35-.18.59-.19,3.33-.16,6.67-.27,10-.3,5.97-.06,11.94.09,17.9.46.84.05,1.68.1,2.51.17,1.4.09,2.8.2,4.2.33,3.56.3,7.1.69,10.64,1.15.61.08,1.13.46,1.13,1.13Z"/>
      <path class="cls-5" d="M263.59,588.86c-.16.56-.81.99-1.39.79-2.74-.94-5.5-1.8-8.28-2.59-3.54-1-7.11-1.88-10.7-2.64-1.32-.28-2.63-.54-3.95-.78-1.22-.23-2.44-.44-3.66-.63-3.91-.63-7.83-1.12-11.78-1.46-.61-.06-1.13-.48-1.13-1.13,0-.58.52-1.18,1.13-1.13,2.95.25,5.88.58,8.81.99,2.03.28,4.05.6,6.06.96,1.15.2,2.29.42,3.43.64,1.23.25,2.45.51,3.68.79,5.74,1.29,11.42,2.89,16.99,4.8.58.2.96.77.79,1.39Z"/>
      <path class="cls-4" d="M173.5,598.23c-.31-3.2-3.83-3.62-6.41-3.81-.9-.07-1.97-.17-2.85.07-1.5.41-2.99,1.35-4.26,2.22-.62.43-1.22.89-1.82,1.35-.31.24-.63.49-.94.73-.13.1-.26.2-.39.3-.2.16.18-.13-.17.13-.56.41-1.12.81-1.71,1.17-.29.17-.58.34-.88.49-.15.08-.31.15-.47.22-.15.07-.16.07-.02,0l-.26.1c-1.71.61-3.86.53-4.87,2.3s0,3.92,1.35,5.17c1.49,1.39,3.83,1.73,5.73,2.31l-1.75-1.75v.04c.1-.64.18-1.28.27-1.93-.06.14.47-.39.11-.17-.12.07-.23.2-.33.29-.45.4.35-.18-.13.09l3.42,3.42c.94-1.57-.02-3.43-1.66-3.94-1.05-.33-2.28.22-2.82,1.15l-.05.08c-1.62,2.79,2.7,5.31,4.32,2.52l.05-.08-2.82,1.15.11.04-1.1-.64.09.1-.64-2.43.22-.46c-1.3,2.17,1.27,4.65,3.42,3.42.94-.54,2.1-1.53,2.39-2.6.38-1.38-.48-2.66-1.77-3.11-.22-.08-.44-.13-.66-.2l-2.71-.82c-.22-.07-.44-.13-.66-.2.03.01.54.14.51.2,0,0-.36-.38-.34-.35.05.07.22.17.05.04-.12-.1-.04.27-.04-.07l.05.31-1.26,1.69c.06.03.46-.09.54-.11.41-.08.82-.17,1.23-.28.84-.23,1.66-.55,2.45-.91,1.18-.53,2.25-1.23,3.28-2.01,1.35-1.02,1.94-1.56,3.22-2.44.59-.4,1.19-.78,1.82-1.12.37-.2.74-.38,1.12-.56.65-.31-.2.16-.43.03.2.11.94-.02,1.17-.01.56.02,1.12.07,1.68.12.13.01.48.08-.08-.01.13.02.25.04.38.06.27.05.53.1.8.17.11.03.21.06.32.09.4.11.06.05-.12-.06.07.05.15.07.22.12-.58-.42-.8-.86-.88-1.63.13,1.34,1.06,2.5,2.5,2.5,1.25,0,2.63-1.15,2.5-2.5h-.02Z"/>
      <path class="cls-4" d="M205.94,607.31c1.29.34,2.52.82,3.78,1.23,1.39.46,2.83.72,4.3.8v-5c-2.83.05-5.66.24-8.45.75s-5.43,1.42-8.02,2.56c-1.14.5-1.46,2.09-1.02,3.12.47,1.12,1.75,1.81,2.95,1.45.35-.1.7-.21,1.05-.31,1.25-.37,2.17-1.77,1.75-3.08s-1.73-2.15-3.08-1.75c-.35.1-.7.21-1.05.31l1.93,4.57c4.44-1.94,8.98-2.53,13.95-2.62,1.31-.02,2.56-1.13,2.5-2.5s-1.1-2.43-2.5-2.5c-.09,0-1.09-.09-.63-.03-.31-.04-.63-.11-.93-.18-.55-.13-1.09-.3-1.62-.48-1.19-.4-2.35-.85-3.57-1.16s-2.77.42-3.08,1.75.39,2.72,1.75,3.08h0Z"/>
      <g>
        <path class="cls-7" d="M118.06,609.7c1.3-.14,2.61-.2,3.91-.35.36-.04.83-.22.74-.55l-4.65.9Z"/>
        <path class="cls-5" d="M118.06,612.2c1.04-.11,2.09-.18,3.14-.27.26-.02.52-.05.77-.08.53-.06.89-.12,1.37-.32.61-.26,1.1-.64,1.47-1.2.14-.21.25-.48.32-.72.14-.5.09-.97,0-1.47-.11-.58-.65-1.2-1.15-1.49-.54-.31-1.33-.45-1.93-.25s-1.19.57-1.49,1.15l-.25.6c-.12.44-.12.89,0,1.33v.05c-.02-.22-.05-.44-.08-.66v.05c.03-.22.06-.44.09-.66,0,.03-.01.06-.02.09l.25-.6s-.03.06-.05.08l.39-.51s-.05.05-.07.07l.51-.39c-.06.04-.13.08-.2.11l.6-.25c-.11.04-.23.07-.35.1l.66-.09c-1.32.17-2.65.21-3.96.35-.34-.01-.67.06-.96.22-.31.1-.58.27-.8.52-.43.43-.76,1.15-.73,1.77s.24,1.32.73,1.77c.46.42,1.12.8,1.77.73h0l-.03-.03Z"/>
      </g>
      <g>
        <path class="cls-6" d="M45.06,598.16c-7.25,1.79-13.86,5.31-18.59,11.09-2.83,3.46-4.04,6.35-3.43,10.92.49,3.76,2.02,6.86,4.41,9.8,1.6,1.98,5.24,4.31,7.5,5.49,8.91,4.69,19.38,5.35,29.44,4.88,16.18-.76,32.49-4.3,46.46-12.49,2.49-1.46,5.09-3.12,7.98-3.1.57,0,1.16.08,1.67.33.74.36,1.26,1.06,1.61,1.8,1.15,2.4.71,5.33-.58,7.66s-3.34,4.14-5.46,5.73c-7.94,5.97-17.48,9.58-27.24,11.44s-19.77,2.04-29.7,1.63c-9.43-.39-19-1.33-27.74-4.9-6.15-2.51-11.78-6.3-16.42-11.06-2.11-2.16-4.04-4.56-5.23-7.33-1.17-2.72-1.6-5.72-1.57-8.68.08-9.12,4.55-18.05,11.63-23.79,7.08-5.74,17.66-9.98,26.37-10.79.4,2.4.19,5-.03,7.43-.04.49-.09.98-.21,1.46-.09.34-.22.67-.35,1-.23.59-.29.88-.52,1.47h0Z"/>
        <path class="cls-5" d="M123.84,624.86c-4.06-5.93-11.72-.51-16.15,1.92-5.16,2.83-10.63,5.03-16.27,6.7-11.24,3.33-23.22,4.82-34.93,4.45-5.89-.18-11.8-1.04-17.29-3.24-4.45-1.78-8.93-4.48-11.45-8.65-2.52-4.17-3.33-9.23-.66-13.38,2.67-4.15,6.97-7.41,11.46-9.57,1.78-.85,3.63-1.52,5.51-2.06.57-.16,1.14-.32,1.71-.46.28-.07.52-.17.73-.3.59-.36.91-.91,1.01-1.52.13-.37.25-.72.36-1.08.47-1.5.74-2.94.88-4.59.17-2.1.19-4.14-.07-6.22-.02-.24-.05-.48-.09-.72-.12-.82-1-1.59-1.86-1.8-.19-.04-.37-.06-.55-.04-.71.07-1.41.15-2.1.25-4.8.69-9.44,2.11-13.9,4.03-5.11,2.2-9.67,4.88-13.61,8.52-8.08,7.45-12.63,19.35-10.3,30.25,1.27,5.94,5.4,10.69,9.87,14.57,4.47,3.88,9.52,6.93,15.01,9.11,11.61,4.61,24.78,5.07,37.13,5,12.35-.07,25.13-1.66,36.72-6.58,5.31-2.25,10.47-5.18,14.82-8.99,4.35-3.81,7.62-10.33,4.02-15.6ZM65.14,651.03c-6.25-.08-12.13-.31-18.12-1.13s-11.47-2.15-16.7-4.62c-4.93-2.33-9.44-5.47-13.28-9.34-1.92-1.94-3.7-4.04-4.87-6.54-1.17-2.5-1.52-5.29-1.5-8.01.05-4.91,1.49-9.74,3.96-13.96,5.21-8.89,15.06-14.17,24.74-16.81,1.19-.33,2.4-.61,3.61-.84.31-.06.62-.12.94-.17.01,1.16-.09,2.33-.18,3.47-.09,1.09-.31,2.04-.61,3.01-.23.06-.46.13-.69.2-4.4,1.3-8.63,3.25-12.29,6.03-3.96,3-8.08,7.13-9.34,12.1-1.26,4.97.31,10.88,3.23,15.16,2.92,4.28,7.34,7.14,11.99,9.18,10.66,4.68,22.68,4.71,34.08,3.7,11.4-1.01,23.34-3.61,34.15-8.42,2.55-1.13,5.04-2.4,7.46-3.8,2.07-1.19,4.57-3.14,7.1-2.98,2.03.13,1.47,3.72,1.02,4.98-.86,2.4-2.92,4.25-4.88,5.77-8.91,6.88-20.04,10.47-31.07,12.02-6.2.87-12.5,1.08-18.75,1Z"/>
      </g>
      <ellipse class="cls-6" cx="115.81" cy="587.86" rx="25.93" ry="21.39"/>
      <path class="cls-6" d="M94.41,557.75c-1.48-.91-3.21-1.33-4.93-1.59-7.7-1.16-15.81.71-22.22,5.13l31.12,11.88c.25-1.12.47-2.25.59-3.4.49-4.5-.71-9.64-4.55-12.02h0Z"/>
      <path class="cls-6" d="M240.11,592.54h0c-.82-.4-1.64-.79-2.48-1.16h-.01c-.08,4.89-.3,9.76-.66,14.63-.19,2.53-.42,5.07-1.11,7.52-1.25,4.41-3.94,8.2-6.81,11.81-.41.51-.82,1.02-1.23,1.53-.99.29-1.99.57-2.98.86-2,.58-4,1.15-6.01,1.71-.62.18-1.24.35-1.86.53,0-.54,0-1.09,0-1.64-.03-2.73-.31-5.52-1.51-7.92-.12-.25-.25-.49-.41-.73,0-.02-.03-.05-.04-.07-2.1-3.44-6.02-5.47-9.7-7.26-.92-.44-1.85-.89-2.79-1.31-.18-.09-.36-.17-.54-.24-.92-.41-1.84-.79-2.78-1.12-.02,0-.05-.02-.07-.02h-.01c-.86-.31-1.73-.58-2.61-.79-.91-.22-1.83-.37-2.77-.45-.24-.02-.49-.04-.73-.05h-.04c-1.48-.05-2.99.14-4.31.8-.48.24-.91.55-1.32.88l-.02.02c-.3.24-.58.53-.83.81-.69.74-1.27,1.59-1.82,2.45-.21.35-.42.69-.63,1.04-.27-.46-.57-.89-.88-1.32-.18-.25-.36-.49-.55-.72-2.7-3.39-6.52-5.87-10.69-7.03,0,0-.03,0-.04,0-1.72-.47-3.5-.72-5.27-.71-1.83,0-3.66.25-5.39.84-1.13.38-2.2.89-3.22,1.48-.46.27-.9.55-1.34.85-.06.03-.11.07-.17.11,0,0-.01,0-.01.01-.27.16-.53.36-.79.55-.22.15-.43.31-.64.47-.31.22-.61.45-.91.69l-.96.75s-.1.09-.16.13c-.1.08-.2.16-.3.25-.03.02-.05.04-.08.06-.03.02-.06.05-.09.07-.72.59-1.46,1.19-1.93,1.99-1.15,1.97-.35,4.45.49,6.57,1.29,3.3,1.42,4.52,2.61,7.64t0,.02c.03.09.06.18.1.27.01.05.03.1.05.15.06.17.15.32.26.46.39.52,1.02.91,1.59,1.23-.57.21-1.14.4-1.72.58,0,0-.01,0,0,.01-.02,0-.04,0-.06.01-5.38,1.69-11.11,2.29-16.73,1.73-1.38-.14-2.79-.37-4.1-.81-.24-.08-.48-.17-.7-.28-.3-.13-.58-.28-.86-.44-.16-.09-.31-.19-.46-.29-.05-.03-.11-.06-.15-.1-.09-.06-.17-.14-.26-.21-.11-.09-.23-.16-.34-.25-.62-.53-1.13-1.16-1.56-1.84-.03-.04-.07-.09-.1-.14-.59-.92-1.07-1.94-1.51-2.95-1.13-2.55-2.19-5.13-3.19-7.74-.58-1.53-1.14-3.11-1.22-4.73-.03-.3-.03-.6-.01-.91.06-.84.26-1.67.55-2.47.21-.56.45-1.12.71-1.67.15-.33.31-.66.47-.98,3.12-6.34,6.36-12.62,9.61-18.89l-.3-.11-2.39-.91-30.72-11.73-2.29-.87c.1-.45.19-.9.28-1.35h0c.07-.41.14-.8.19-1.2.05-.28.08-.57.11-.85.07-.64.11-1.3.1-1.95,0-.24-.01-.48-.02-.72,0-.18-.01-.36-.03-.53-.01-.17-.03-.35-.05-.52-.02-.28-.06-.57-.11-.85-.02-.12-.04-.23-.06-.34-.04-.2-.08-.4-.12-.59-.05-.2-.1-.39-.15-.58-.05-.18-.1-.35-.16-.53-.04-.15-.09-.3-.15-.45-.06-.18-.13-.37-.21-.55-.09-.23-.2-.46-.31-.68-.09-.18-.18-.35-.27-.52-.1-.17-.2-.33-.3-.5-.21-.32-.43-.63-.68-.93-.12-.15-.25-.29-.38-.43-.15-.17-.32-.34-.5-.5-.18-.15-.37-.3-.56-.45-.19-.14-.4-.27-.6-.41-.74-.46-1.54-.79-2.37-1.04-.42-.13-.84-.23-1.27-.32-.43-.1-.86-.17-1.29-.24-.38-.06-.75-.1-1.13-.14-1.55-.18-3.11-.23-4.67-.16-.35,0-.7.03-1.04.06-.01-.01-.03-.01-.04,0-.39.03-.78.06-1.16.11-.38.04-.76.09-1.13.15-.07,0-.14,0-.2.03-.33.04-.66.1-.98.16-.33.07-.67.13-1,.21-.33.07-.65.15-.98.24-.41.1-.81.22-1.21.34-.39.12-.79.24-1.18.38-.4.13-.78.27-1.17.42-.57.22-1.13.46-1.69.72-.54.24-1.06.49-1.58.77-.69.37-1.37.76-2.03,1.17-.33.21-.66.43-.98.65-.02.02-.03.03-.04.03,0,0-.01,0-.01,0l2.9,1.11,25.87,9.86,1.38.53.97.37h.01c-.75,3.29-1.88,6.5-2.4,9.84-.08.52-.14,1.04-.18,1.55-.15,1.86-.05,3.76.4,5.53.11.42.23.83.38,1.24.14.41.32.8.51,1.18.48.95,1.09,1.82,1.86,2.56.16.15.31.29.49.44.85.71,1.81,1.24,2.82,1.64.72.27,1.47.5,2.26.67,3.1.7,6.52.76,9.57,1.76.51.16,1.02.37,1.49.61.49.24.94.53,1.34.88.13.12.26.24.38.38.12.12.23.26.35.41,1.1,1.48,1.18,3.43,1.1,5.3-.01.24-.02.48-.03.71-.03.42-.05.83-.11,1.25v.04c-.02.15-.05.3-.07.45-.01.01-.01.02-.01.03v.05c-.12.57-.33,1.11-.67,1.57-.23.31-.51.56-.81.76h-.01c-1.35.88-3.32.78-5.02.59-9.48-1.03-19.03-1.45-28.57-1.26-6.39.12-12.82.52-19.12-.54-6.3-1.06-12.58-3.75-16.58-8.74-.19-.23-.38-.48-.55-.72-.26-.35-.49-.71-.71-1.08-.02-.02-.03-.05-.04-.07-.08-.13-.16-.25-.23-.38-.39-.7-.7-1.42-.94-2.17,0-.03-.02-.05-.02-.08-.19-.62-.33-1.25-.39-1.9,0-.04-.01-.08-.01-.12-.15-1.75.22-3.5.59-5.21.07-.32.13-.64.21-.97.02-.12.05-.25.08-.38.14-.69.29-1.39.44-2.08,0-.02.01-.04.01-.06.18-.84.36-1.67.53-2.51.9-4.17,1.78-8.35,2.68-12.53,1.01-4.7,2.04-9.49,4.39-13.69,2.03-3.64,4.96-6.69,8.01-9.53,11.51-10.76,25.33-19.33,40.59-23.23,6.56-1.67,13.29-2.48,20.03-3.13,4.73-.47,9.55-.86,14.24-.02,4.11.73,7.9,2.37,11.45,4.51.55.33,1.08.67,1.61,1.03,2.96,1.95,5.74,4.24,8.41,6.64.96.86,1.9,1.74,2.83,2.61.05.05.1.1.15.14l.04.04c.41.39.8.76,1.21,1.15l.04.04c-.22.56-.45,1.11-.68,1.66-.04.11-.09.21-.13.32-.04.09-.08.19-.12.28-1.04,2.55-2.05,5-2.56,7.63-.05.2-.09.4-.12.61-.07.4-.13.8-.17,1.21-.04.42-.07.83-.08,1.27-.01.11-.01.23-.01.35,0,.21,0,.43.01.63,0,.26.01.52.02.78,0,.04.01.07.01.1.01.21.02.42.04.62.14,1.62.47,3.22.96,4.78,0,.01.01.03.01.04-.02,0-.03-.01-.05-.01h0c-.69-.11-1.38-.22-2.08-.32-.79-.12-1.58-.22-2.38-.31-.61-.07-1.13.56-1.13,1.13,0,.33.13.59.34.79.05.04.1.09.16.12.04.03.09.05.14.07.15.08.31.12.49.14,1.07.12,2.13.27,3.19.44.74.12,1.48.24,2.22.38.58,1.4,1.27,2.75,2.05,4.05.81,1.35,1.71,2.65,2.67,3.89t.01.02h-.05c-.86-.04-1.72-.05-2.58-.05-2.12,0-4.24.07-6.35.24-2.31.18-4.6.48-6.89.85-.6.1-.94.84-.78,1.39.13.46.49.72.91.78.15.03.31.03.47,0,4.46-.75,8.99-1.09,13.51-1.02.02-.01.04-.01.06,0,.23,0,.46,0,.69.02.57.01,1.14.03,1.71.06.4.02.81.04,1.21.07,1.31,1.52,2.68,2.98,4.1,4.41.01,0,.03.03.04.04t-.02.01h-.02c-.81.24-1.62.5-2.43.79-.58.19-1.15.39-1.73.61-3.96,1.49-7.77,3.36-11.37,5.6-.86.54-.55,1.67.14,2.02.05.03.11.05.16.05.25.08.54.06.84-.13,3.43-2.13,7.05-3.94,10.83-5.37.95-.36,1.92-.7,2.89-1.01.84-.27,1.69-.53,2.55-.76,3.9,3.82,8.06,7.39,12.7,10.25,5.28,3.25,11.24,5.57,17.43,6.02,10.76.77,15.5-1.48,26.2-3.91.03,0,1-.62,1.89-1.19.74-.48,1.42-.9,1.45-.91.36-.06.76-.26,1.04-.54h0c.08-.08.14-.14.19-.22.17.16.36.34.54.49l.03.03c.23.22.46.43.69.63.14.14.28.27.42.4.67.6,1.34,1.2,2.03,1.78l-.07-.02c.81.72,1.64,1.41,2.47,2.09Z"/>
      <path class="cls-5" d="M177.87,566.64c2.04.95,4.04,2.12,6.35,2.15,1.45.02,1.45-2.23,0-2.25-1.87-.03-3.56-1.07-5.21-1.84-1.84-.86-3.72-1.64-5.62-2.36-3.75-1.41-7.61-2.51-11.54-3.31-.77-.16-1.55-.3-2.33-.43.25.82.55,1.63.88,2.43,6.02,1.14,11.92,3.02,17.47,5.6h0Z"/>
      <path class="cls-5" d="M153.88,559.1c0,.67.52,1.06,1.13,1.13,1.81.2,3.61.48,5.4.82-.33-.8-.63-1.61-.88-2.43-1.5-.25-3.01-.47-4.52-.64-.61-.07-1.13.57-1.13,1.13h0Z"/>
      <path class="cls-5" d="M173.18,572c2.19.33,4.37.75,6.52,1.27,1.41.34,2.01-1.83.6-2.17-4.97-1.19-10.05-1.89-15.15-2.08.61.8,1.25,1.58,1.9,2.34,2.05.13,4.1.35,6.13.65h0Z"/>
      <path class="cls-5" d="M156.16,569.2c-2.31.18-4.61.48-6.89.86-.6.1-.94.84-.79,1.39.17.64.78.89,1.39.79,5.66-.95,11.44-1.25,17.18-.88-.66-.76-1.29-1.54-1.9-2.34-2.99-.11-5.99-.05-8.98.18h-.01Z"/>
      <path class="cls-5" d="M173.03,577.63c.15-.04.29-.08.44-.12,2.03-.52,4.09-.81,6.18-.54.6.08,1.13-.57,1.13-1.13,0-.67-.52-1.05-1.13-1.13-2.2-.29-4.43.03-6.57.57-.63.16-1.26.33-1.88.52.08.08.16.16.24.24.53.53,1.06,1.06,1.6,1.59h0Z"/>
      <path class="cls-5" d="M155.63,582.82c-1.23.76-.1,2.71,1.14,1.95,3.43-2.13,7.05-3.95,10.83-5.37,1.78-.67,3.59-1.27,5.43-1.76-.54-.52-1.07-1.05-1.6-1.59-.08-.08-.16-.16-.24-.24-1.41.42-2.81.9-4.19,1.41-3.96,1.49-7.77,3.36-11.37,5.6h0Z"/>
      <path class="cls-5" d="M161.48,540.63s-.07-.02-.1-.03c-.29-.12-.57-.3-.83-.55-.21-.2-.41-.39-.62-.59-.01-.01-.02-.03-.04-.04-1.68-1.6-3.38-3.18-5.14-4.7-3.78-3.26-7.9-6.29-12.51-8.27-5.22-2.24-10.71-2.5-16.3-2.08-11.45.85-22.92,2.5-33.6,6.92-9.64,4-18.52,9.88-26.33,16.77-4,3.52-8.06,7.27-10.52,12.07-2.63,5.13-3.46,11.12-4.65,16.69-.66,3.09-1.32,6.17-1.98,9.26-.06.26-.11.52-.18.78-.62,2.65-1.48,5.46-1.39,8.16.03.93.24,1.81.58,2.65,1.37,3.45,4.96,6.17,8,7.78,4.55,2.4,9.74,3.24,14.83,3.46,6.12.27,12.13-.18,18.38-.14s12.5.33,18.73.89c1.51.14,3.01.31,4.51.45.88.09,1.86.2,2.72,0,.23-.06.42-.13.56-.23.22-.14.34-.34.43-.63.05-.17.09-.38.12-.62.02-.18.04-.36.06-.55.1-.99.13-2.06,0-3.01-.28-2.35-2.18-3.02-4.25-3.51-2.36-.55-4.78-.71-7.16-1.15-5.1-.95-9.14-3.75-10.8-8.88-1.66-5.13-.33-10.46,1.04-15.47.13-.47.26-.94.39-1.42.21-.78.42-1.57.59-2.37.75-3.26,1.04-6.66-.61-9.79-2.31-4.37-8.24-4.39-12.57-4.09-4.49.31-8.82,1.74-12.68,4.01h-.01c-.54.32-1.07.66-1.59,1.01h0c-2.67,1.79-5.17-2.54-2.52-4.33,2.37-1.6,4.93-2.87,7.62-3.83,5.49-1.98,11.6-2.48,17.34-1.38,2.74.53,5.39,1.72,7.22,3.88,1.67,1.97,2.68,4.4,3.08,6.93.29,1.85.27,3.64.07,5.42-.15,1.33-.4,2.64-.7,3.95-.59,2.59-1.38,5.16-1.94,7.79-.89,4.13-.99,9.86,3.16,12.33,2.04,1.22,4.55,1.49,6.87,1.81,2.74.37,5.53.72,8.03,1.99,2.81,1.42,4.17,4.04,4.42,7.09.03.39.06.81.07,1.23.01.15.02.31.01.47.01.06.01.13.01.19v.09c0,.58-.03,1.16-.1,1.74-.01.11-.03.22-.04.32-.02.12-.04.23-.06.34-.16.91-.42,1.79-.84,2.57-.1.18-.21.36-.33.53-.19.29-.41.55-.66.8-1.92,1.9-4.75,1.99-7.28,1.73-3.27-.33-6.55-.64-9.83-.85-6.72-.43-13.46-.55-20.19-.39-11.67.28-24.66.61-33.9-7.78-1.58-1.45-2.98-3.14-4.02-5.02-.15-.27-.3-.55-.42-.83-.22-.43-.41-.88-.58-1.33-.02-.05-.04-.1-.05-.15-.15-.41-.27-.81-.36-1.22-.09-.4-.16-.81-.21-1.21-.25-2.15.08-4.33.54-6.51.01-.06.02-.11.03-.17.17-.83.35-1.65.53-2.48.18-.86.36-1.72.54-2.58,1.05-4.93,2.1-9.86,3.17-14.79,1.32-6.05,3.09-11.82,6.94-16.78,3.52-4.54,7.99-8.4,12.46-11.97,9.06-7.23,19.19-13.11,30.24-16.71,6.02-1.96,12.2-3.07,18.53-3.86,6.33-.79,12.94-1.76,19.32-1.05,11.12,1.23,19.91,8.23,27.8,15.65.04.03.07.07.1.1.49.45.97.91,1.45,1.37.05.05.1.1.15.15,1.76,1.95-.62,4.73-2.76,3.97Z"/>
      <path class="cls-5" d="M158.39,629.85h-.01c-.15.64-.52,1.19-1.12,1.44-.18.08-.36.15-.54.22-.02.01-.03.01-.04.02-5.25,2.12-10.72,2.96-16.39,2.78-5.03-.16-10.23-1.17-13.3-5.25-3.07-4.08-5.44-9.21-6.71-14.15-.21-.82-.32-1.61-.34-2.37-.01-.17-.01-.34,0-.51.01-.85.12-1.68.31-2.52.01-.04.02-.08.04-.13,0,0,0,0,0-.01,0-.03.01-.07.03-.11.02-.12.05-.24.08-.36.15-.52.32-1.04.51-1.58.04-.11.08-.23.12-.34t0-.02s.01-.03.01-.04c.08-.21.16-.42.24-.63.88-2.35,1.84-4.68,2.87-6.97,2.1-4.68,4.52-9.19,7.24-13.54.11-.19.23-.38.35-.57h.01c1.72-2.71,6.04-.2,4.32,2.53-2.86,4.52-5.4,9.23-7.59,14.11-.83,1.84-1.59,3.72-2.3,5.61-.1.26-.2.53-.3.79-.38,1.01-.87,2.12-1.01,3.16-.14,1.04.19,2.08.49,3.06,1.24,4.11,3.11,8.52,5.82,11.89,2.52,3.14,7.44,3,11.08,2.98,3.57-.03,7.14-.5,10.52-1.63.35-.12.69-.24,1.03-.38.1-.03.2-.07.29-.11.21-.08.42-.16.63-.25.11-.05.22-.09.33-.13h.01c.43-.13.88-.19,1.3-.14.71.07,1.35.43,1.78,1.17.11.19.2.41.25.65.1.42.09.89-.02,1.33Z"/>
      <path class="cls-5" d="M158.35,627.43c-2.1-3.5-3.76-7.21-4.88-11.14-.21-.73-.58-1.38-.13-1.84.59-.6,1.38-1.03,2.07-1.5,1.62-1.11,3.28-2.19,5.05-3.06,3.38-1.66,7.16-2.18,10.58-.35,3.65,1.96,7,4.68,10.13,7.37,1.02.88,2.53,1,3.54,0,.9-.9,1.03-2.65,0-3.54-3.05-2.63-6.27-5.13-9.67-7.29s-7.2-3.15-11.3-2.48c-3.76.61-7.17,2.54-10.29,4.65-1.48,1-3.21,1.98-4.29,3.44-1.37,1.87-1.05,4.04-.44,6.13,1.24,4.24,3.05,8.33,5.32,12.12,1.65,2.76,5.98.25,4.32-2.52h-.01Z"/>
      <path class="cls-5" d="M213.68,616.12c-1.69-1.65-3.62-3.08-5.54-4.3-.9-.57-1.83-1.1-2.79-1.57-.99-.49-2-.92-3.04-1.29-1.29-.47-2.61-.83-3.95-1.06-.32-.07-.64-.12-.96-.16-.3-.04-.6-.07-.9-.1-3.38-.31-6.79.19-9.97,1.83-.04.01-.07.03-.11.05-1.2.63-2.34,1.47-3.4,2.42-.15.12-.28.25-.42.39-1.07,1-2.06,2.12-2.96,3.28-.82,1.05-1.57,2.13-2.25,3.19-1.42,2.22-2.24,5.12-1.77,7.72.1.54.25,1.06.47,1.56.38.9.96,1.74,1.78,2.45.05.19.11.37.19.55.04.08.08.16.13.24,1.67,3.28,6.26,3.71,9.46,4.29,4.3.78,8.66,1.33,13.02,1.63,2.19.15,4.39.23,6.59.25,1.97.02,3.98-.03,5.83-.77,1.6-.65,2.94-1.76,3.93-3.13.89-1.22,1.51-2.65,1.8-4.15.02-.09.04-.18.05-.27.09-.54.14-1.07.16-1.6.18-4.52-2.16-8.35-5.35-11.45ZM185.15,630.03c-1.11-.25-2.31-.44-2.77-1.47-.07-.17-.17-.32-.29-.45-.1-.41-.32-.8-.65-1.09v-.02c-.19-.17-.36-.36-.49-.55-1.22-1.71.03-4.09,1.13-5.68,1.61-2.33,3.59-4.94,6.01-6.45.6-.37,1.22-.69,1.85-.93,4.62-1.85,9.96-.54,14.21,1.86,4.12,2.32,9.88,6.36,9.94,11.61.02,1.86-.68,4.02-2.35,5-1.04.6-2.33.63-3.53.64-1.94.02-3.88-.05-5.82-.15-3.84-.2-7.68-.6-11.48-1.22-1.93-.32-3.85-.67-5.76-1.1Z"/>
      <path class="cls-5" d="M182.04,628.7c0,.41-.09.77-.26,1.09-.41.81-1.28,1.32-2.24,1.41-.09.01-.18.02-.27.02-.36.04-.72.07-1.08.1-6.86.6-13.74.68-20.61.24-.16.04-.32.04-.48.02l-.42-.05-.3-.04c-.99-.12-1.88-.61-2.28-1.45,0-.02,0-.04-.02-.05-.03-.08-.06-.15-.08-.23-.01-.01,0-.01,0-.01-.08-.23-.12-.49-.12-.76,0-.36.09-.72.25-1.05.1-.2.22-.4.36-.57.17-.2.36-.38.58-.53h.01c.38-.25.83-.38,1.3-.35.49.04.99.07,1.48.1,5.91.36,11.85.34,17.76-.07,1.12-.07,2.23-.16,3.34-.27.19-.01.39-.03.58-.05.45-.04.88.08,1.25.31.51.32.91.85,1.11,1.42.09.25.14.51.14.77Z"/>
      <path class="cls-5" d="M229.49,628.77c-.34.42-.81.75-1.32.92-.31.1-.63.21-.94.31-3.3,1.11-6.58,2.29-9.85,3.5-.12.04-.24.07-.36.09-1.03.17-2.03-.5-2.52-1.38-.08-.15-.15-.3-.2-.46-.44-1.37.53-2.63,1.75-3.08.03-.01.07-.02.1-.04.27-.1.54-.2.81-.3.69-.25,1.38-.51,2.07-.76,2.33-.84,4.67-1.66,7.02-2.44.26-.09.53-.18.79-.27.8-.26,1.6-.03,2.2.48.41.33.72.78.88,1.27.25.78.04,1.56-.43,2.16Z"/>
      <path class="cls-5" d="M259.71,566.92c-.25,1.42-.92,2.78-1.68,4-.92,1.46-1.99,2.82-3.16,4.09-.67.72-1.36,1.41-2.08,2.07-.11.1-.23.21-.34.31-2.1,1.88-4.32,3.65-6.64,5.28-.85.61-1.71,1.19-2.59,1.75-1.36.89-2.76,1.72-4.18,2.51-.89.5-1.79.98-2.71,1.43-.21.12-.43.23-.65.33-.17.09-.34.17-.52.25-.52.26-1.04.5-1.57.73-2.81,1.29-5.71,2.39-8.66,3.31-10.23,3.18-21.16,3.5-31.27-.3-8.47-3.19-16.56-7.97-23.11-14.28-.01,0-.02-.01-.02-.02-.6-.57-1.18-1.15-1.74-1.75-.02-.01-.03-.03-.03-.04-.2-.19-.37-.38-.55-.57-1.42-1.54-2.77-3.11-4.01-4.77h-.01c-.56-.74-1.1-1.49-1.61-2.26-.01,0-.01,0-.01-.02-.93-1.38-1.8-2.83-2.59-4.37-.65-1.28-1.23-2.58-1.72-3.9,0,0-.01-.01-.01-.02-.29-.78-.56-1.56-.8-2.36v-.02c-.57-1.89-1-3.82-1.28-5.8-.08-.46-.14-.92-.19-1.39-.01-.03-.01-.07-.02-.1-.01-.1-.02-.19-.03-.29,0-.03-.01-.06,0-.09-.02-.21.01-.42.07-.62.01-.08.04-.15.07-.22.38-.91,1.42-1.57,2.36-1.57.06,0,.11,0,.17.01.11,0,.22.02.32.03,1.14.23,1.84,1.23,2,2.38v.02s.01.04.01.06c.01.06.01.13.02.19.33,2.91,1.1,5.71,2.18,8.39.36.87.75,1.73,1.17,2.58,1.31,2.62,2.91,5.09,4.71,7.38.65.85,1.33,1.67,2.05,2.47,1.02,1.15,2.09,2.25,3.18,3.29.05.05.1.09.15.14.66.62,1.32,1.22,2.01,1.8,6.24,5.4,13.64,9.58,21.93,12.02,9.19,2.71,18.87,1.52,27.78-1.66.15-.05.3-.11.45-.17,1.08-.39,2.15-.82,3.2-1.28,1.99-.85,3.95-1.82,5.85-2.86,1.05-.57,2.08-1.16,3.09-1.77.07-.05.14-.09.21-.13,2.27-1.38,4.52-2.86,6.66-4.49.89-.67,1.75-1.36,2.59-2.11.73-.61,1.44-1.26,2.12-1.94,1.57-1.55,3.01-3.18,4.05-5.25,1.04-2.07.12-4.26-.51-6.33-1.26-4.14-2.9-8.14-4.88-11.98-.27-.53-.56-1.06-.84-1.59-.03-.04-.05-.08-.07-.12h0c-.46-.85-.4-1.67-.05-2.32.75-1.38,2.8-2.05,4-.73.13.15.26.32.37.52.32.58.63,1.16.93,1.74,2.52,4.88,4.58,10.04,5.99,15.34.44,1.68.73,3.35.43,5.07Z"/>
      <path class="cls-5" d="M253.46,601.19c-.36.14-.77.1-1.13-.24-.46-.45-.92-.87-1.4-1.3-.01-.01-.02-.02-.03-.02-.03-.04-.06-.06-.08-.08-1.42-1.23-2.93-2.38-4.49-3.43-.48-.31-.97-.63-1.45-.93h-.03s-4.7-2.62-4.7-2.62c-.01-.01-.03-.01-.04-.02-.82-.41-1.64-.8-2.48-1.17h-.01c-.81-.38-1.64-.74-2.47-1.08-.52-.22-1.04-.43-1.56-.63-.75-.3-1.51-.58-2.27-.86-.02-.01-.04-.01-.06-.02-.36-.13-.71-.26-1.07-.39l-.76-.27c-.96-.34-1.91-.66-2.87-.98-1.94-.65-3.88-1.27-5.82-1.89-1.38-.44-.79-2.61.6-2.17,2.58.82,5.16,1.65,7.71,2.53.24.08.47.16.71.25.95.33,1.9.67,2.84,1.03h.01c.17.06.33.12.5.19.21.07.43.16.64.24.02.01.04.01.06.02.23.09.47.18.7.27.01,0,.02.01.03.01.28.11.55.22.83.34.32.13.64.26.96.39.87.37,1.75.75,2.61,1.13h.01c.4.19.8.37,1.2.57,5.02,2.41,9.74,5.38,13.77,9.29.69.67.23,1.6-.46,1.84Z"/>
      <path class="cls-5" d="M161.87,535.91c-1.49,2.19-2.44,4.79-3.54,7.19-1.21,2.65-2.35,5.29-2.45,8.25-.05,1.31,1.18,2.56,2.5,2.5,1.39-.06,2.45-1.1,2.5-2.5,0-.09.08-1.05.02-.59.04-.29.1-.58.17-.86.14-.62.33-1.22.54-1.82.09-.24.18-.48.27-.71.11-.28.13-.32.04-.11.07-.16.13-.31.2-.47.24-.55.5-1.1.75-1.65,1.03-2.24,1.92-4.66,3.31-6.7.74-1.08.24-2.82-.9-3.42-1.27-.67-2.63-.26-3.42.9h0Z"/>
    </g>
    <path class="cls-5" d="M240.16,588.99c0,.35,0,.71,0,1.07-.01.82-.02,1.65-.04,2.48h0c-.06,2.76-.17,5.52-.31,8.13-.2,3.74-.35,7.53-1.01,11.22-1.16,6.5-5.16,11.9-9.3,16.88-.13.18-.28.35-.42.52-.45.54-1.15.76-1.84.71-.64-.03-1.27-.28-1.7-.71-.46-.46-.68-1-.7-1.56-.04-.69.22-1.4.7-1.98.17-.21.34-.41.52-.62,3.67-4.46,7.07-9.21,8-15.05.54-3.42.63-6.83.8-10.4.15-3.13.26-6.25.3-9.38,0-.44,0-.89,0-1.33v-.03c.01-.24.04-.45.1-.65.02-.11.06-.22.11-.32.61-1.4,2.45-1.75,3.67-1.04.66.38,1.13,1.07,1.12,2.06Z"/>
  </g>
  <path class="cls-1" d="M266.64,577.29c0,.56-.53,1.21-1.13,1.13-3.31-.43-6.62-.8-9.94-1.1-.93-.08-1.85-.16-2.78-.24-.11.1-.23.21-.34.31-2.1,1.88-4.32,3.65-6.64,5.28,5.74,1.29,11.42,2.89,16.99,4.8.58.2.96.77.79,1.39-.16.56-.81.99-1.39.79-2.74-.94-5.5-1.8-8.28-2.59-3.54-1-7.11-1.88-10.7-2.64-1.36.89-2.76,1.72-4.18,2.51.66.38,1.13,1.07,1.12,2.06,0,.35,0,.71,0,1.07,5.02,2.41,9.74,5.38,13.77,9.29.69.67.23,1.6-.46,1.84-.36.14-.77.1-1.13-.24-.46-.45-.92-.87-1.4-1.3-.01-.01-.02-.02-.03-.02-.03-.04-.06-.06-.08-.08-1.42-1.23-2.93-2.38-4.49-3.43-.48-.31-.97-.63-1.45-.93h-.03s-4.7-2.62-4.7-2.62c-.01-.01-.03-.01-.04-.02-.06,2.75-.17,5.51-.31,8.12-.2,3.74-.35,7.53-1.01,11.22-1.16,6.5-5.16,11.9-9.3,16.88-.13.18-.28.35-.42.52-.45.54-1.15.76-1.84.71-3.3,1.11-6.58,2.29-9.85,3.5-.12.04-.24.07-.36.09-.99,1.37-2.33,2.48-3.93,3.13-1.85.74-3.86.79-5.83.77-2.2-.02-4.4-.1-6.59-.25-4.36-.3-8.72-.85-13.02-1.63-3.2-.58-7.79-1.01-9.46-4.29-6.86.6-13.74.68-20.61.24-.16.04-.32.04-.48.02l-.42-.05c-5.25,2.12-10.72,2.96-16.39,2.78-5.03-.16-10.23-1.17-13.3-5.25-3.07-4.08-5.44-9.21-6.71-14.15-.21-.82-.32-1.61-.34-2.37-.19.29-.41.55-.66.8-1.92,1.9-4.75,1.99-7.28,1.73-3.27-.33-6.55-.64-9.83-.85-6.72-.43-13.46-.55-20.19-.39-11.67.28-24.66.61-33.9-7.78-1.58-1.45-2.98-3.14-4.02-5.02-1.88.54-3.73,1.21-5.51,2.06-4.49,2.16-8.79,5.42-11.46,9.57-2.67,4.15-1.86,9.21.66,13.38,2.52,4.17,7,6.87,11.45,8.65,5.49,2.2,11.4,3.06,17.29,3.24,11.71.37,23.69-1.12,34.93-4.45,5.64-1.67,11.11-3.87,16.27-6.7,4.43-2.43,12.09-7.85,16.15-1.92,3.6,5.27.33,11.79-4.02,15.6-4.35,3.81-9.51,6.74-14.82,8.99-11.59,4.92-24.37,6.51-36.72,6.58-12.35.07-25.52-.39-37.13-5-5.49-2.18-10.54-5.23-15.01-9.11-4.47-3.88-8.6-8.63-9.87-14.57-2.33-10.9,2.22-22.8,10.3-30.25,3.94-3.64,8.5-6.32,13.61-8.52,4.46-1.92,9.1-3.34,13.9-4.03,1.05-4.93,2.1-9.86,3.17-14.79,1.32-6.05,3.09-11.82,6.94-16.78,3.52-4.54,7.99-8.4,12.46-11.97,9.06-7.23,19.19-13.11,30.24-16.71,6.02-1.96,12.2-3.07,18.53-3.86,6.33-.79,12.94-1.76,19.32-1.05,11.12,1.23,19.91,8.23,27.8,15.65.76-1.13,1.59-2.22,2.46-3.27-2.5-3.99-3.18-9.43-2.62-13.89.85-6.81,5.28-12.81,9.14-18.26.66-.93,1.74-1.45,2.82-1.16,2.89-.17,5.84.93,8.49,2,2.75,1.11,5.34,2.43,7.83,4.12,2.49,1.69,4.83,3.64,6.91,5.82,1.05,1.1,2.02,2.26,2.94,3.47.22.28.43.56.62.84,4.14-.81,8.41-.89,12.62-.05,2.65.53,5.2,1.44,7.57,2.71,10-5.28,20.85-10.58,32.47-9.09.1.01.2.03.29.06h.02c.57.06,1.14.31,1.61.7,6.18,5.07,5.26,14.12,4.28,21.17-.81,5.84-2.58,11.93-6.7,16.3,2.52,4.88,4.58,10.04,5.99,15.34.44,1.68.73,3.35.43,5.07-.25,1.42-.92,2.78-1.68,4-.92,1.46-1.99,2.82-3.16,4.09,3.56.3,7.1.69,10.64,1.15.61.08,1.13.46,1.13,1.13Z"/>
</svg>