<?xml version="1.0" encoding="UTF-8"?>
<svg id="Layer_3" data-name="Layer 3" xmlns="http://www.w3.org/2000/svg" viewBox="0 0 1028.59 777.54">
  <defs>
    <style>
      .cls-1 {
        fill: #2b2929;
      }

      .cls-2 {
        stroke: #2b2929;
      }

      .cls-2, .cls-3 {
        fill: #a8a8a8;
      }

      .cls-2, .cls-4 {
        stroke-miterlimit: 10;
      }

      .cls-5 {
        fill: #231f20;
      }

      .cls-6 {
        fill: #443c3e;
      }

      .cls-4 {
        fill: none;
        stroke: #231f20;
      }
    </style>
  </defs>
  <g>
    <path class="cls-4" d="M105.51,624.08c-.35-.23-.69-.47-1.04-.71"/>
    <path class="cls-2" d="M204.63,537.17c0,25.99-10.23.51-19.32.51s-20.16.75-21.07-15.81c.99-5.55,3.03-15.63,9.73-20.88,9.09,0,30.65,10.2,30.65,36.18Z"/>
    <path class="cls-2" d="M241.67,557.37c-18.69,18.06-6.21-8.14-11.36-15.64-5.15-7.5-30.71-15.47,1.1-26.32,5.14-2.33,15.1-6.56,23.23-4.02,5.15,7.5,6.01,27.63-12.97,45.97Z"/>
    <path class="cls-3" d="M257.12,563.6c-5.34,17.55-29.52,28.57-50.31,28.57-17.03,0-48.39-21.53-48.39-41.44s33.24-33.58,50.27-33.58,49.12,33.58,48.44,46.45Z"/>
    <path class="cls-2" d="M216.15,625.73c.59,7.63-2.55,8.3-14.84,9.24s-22.73-4.48-23.32-12.11c-.59-7.63,8.9-14.58,21.2-15.53,12.29-.94,16.38,10.76,16.97,18.39Z"/>
    <ellipse class="cls-3" cx="168.39" cy="617.29" rx="22.2" ry="11.93" transform="translate(-46.78 14.71) rotate(-4.39)"/>
    <path class="cls-6" d="M193.19,522.75c5.82-3.03,12.71-4.57,19.23-3.27,5.64,1.13,10.96,4.18,14.24,8.98.76,1.11,2.2,1.61,3.42.9,1.1-.65,1.66-2.3.9-3.42-4-5.85-10.28-9.89-17.23-11.28-7.9-1.58-16.01.09-23.08,3.78-2.85,1.49-.33,5.8,2.52,4.32h0Z"/>
    <path class="cls-6" d="M222.78,522.25c9.58-5.09,19.8-10.4,31.01-8.97,1.34.17,2.5-1.27,2.5-2.5,0-1.49-1.15-2.33-2.5-2.5-12.03-1.54-23.24,4.19-33.53,9.65-2.84,1.51-.32,5.83,2.52,4.32h0Z"/>
    <path class="cls-6" d="M252.18,512.57c4.84,3.98,3.7,11.57,2.88,17.05s-2.39,10.96-6.65,14.65c-1.02.88-.91,2.63,0,3.54,1.01,1.01,2.51.89,3.54,0,5.08-4.4,7.15-11.15,8.04-17.6.98-7.05,1.9-16.1-4.28-21.17-1.04-.86-2.52-1.02-3.54,0-.88.88-1.05,2.67,0,3.54h0Z"/>
    <path class="cls-6" d="M198.15,514.77l-.08.05c-.89.59-1.5,1.74-1.15,2.82.31.95.92,1.65,1.91,1.91s2.33-.16,2.82-1.15c.91-1.83-.04-3.1-1.14-4.53-.92-1.21-1.89-2.37-2.94-3.47-2.08-2.18-4.42-4.13-6.91-5.82s-5.08-3.01-7.83-4.12c-2.96-1.2-6.3-2.43-9.52-1.89-1.33.23-2.08,1.87-1.75,3.08.39,1.41,1.74,1.97,3.08,1.75,1.07-.18,2.34.36,3.35.65,1.12.33,2.24.72,3.32,1.16,2.15.87,4.22,2,6.16,3.26s3.67,2.65,5.31,4.22c.85.81,1.66,1.66,2.43,2.55.38.44.76.89,1.12,1.36.21.27.77.84.83,1.02l.25-1.93-.1.19,2.82-1.15-.12-.03,1.75,1.75-.04-.13-1.15,2.82.08-.05c2.68-1.76.17-6.09-2.52-4.32h0Z"/>
    <path class="cls-6" d="M171.52,499.62c-3.86,5.45-8.29,11.45-9.14,18.26-.65,5.22.38,11.79,4.05,15.79,2.18,2.37,5.71-1.17,3.54-3.54-1.1-1.2-1.88-3.42-2.3-5.34-.49-2.23-.66-4.66-.27-6.92.46-2.71,1.77-5.28,3.12-7.65,1.6-2.8,3.46-5.44,5.32-8.08.78-1.1.2-2.78-.9-3.42-1.25-.73-2.64-.21-3.42.9h0Z"/>
    <path class="cls-6" d="M166.43,530.13c-5.14,5.6-8.79,12.5-10.42,19.93-.29,1.32.39,2.7,1.75,3.08,1.25.34,2.79-.42,3.08-1.75,1.44-6.62,4.54-12.73,9.13-17.73.91-.99.98-2.55,0-3.54-.93-.93-2.62-1-3.54,0h0Z"/>
    <ellipse class="cls-5" cx="182.37" cy="549.12" rx="13.01" ry="5.26" transform="translate(-391.5 623.08) rotate(-78.97)"/>
    <ellipse class="cls-5" cx="233.81" cy="559.15" rx="13.01" ry="5.26" transform="translate(-359.74 681.68) rotate(-78.97)"/>
    <path class="cls-6" d="M193.51,565.29c-2.27,1.33-4.4,3.14-5.47,5.6s-.83,5.43.87,7.68,4.1,3.38,6.78,3.52c3.06.16,5.9-1.25,8.21-3.14l-3.93-.51c2.46,5.47,9.4,7.63,14.56,4.67,2.36-1.36,4.31-3.74,4.92-6.43.38-1.67.31-3.43-.45-4.99s-2.56-2.61-4.24-1.57c-1.32.82-1.71,2.8-.51,3.93l.07.06c2.35,2.19,5.9-1.34,3.54-3.54l-.07-.06-.51,3.93.11-.06-1.26.34h.18c-.42-.13-.84-.24-1.26-.36l.16.09-.9-.9c1.49,2.32-1.36,5.13-3.46,5.75-2.78.82-5.42-.85-6.55-3.38-.72-1.61-2.82-1.41-3.93-.51-2.07,1.69-5.67,2.66-7.52.11s1.31-4.83,3.19-5.92c2.78-1.62.26-5.95-2.52-4.32h0Z"/>
    <path class="cls-6" d="M220.27,576.61c11.77-.59,23.57-.35,35.3.71,3.32.3,6.63.67,9.94,1.1.6.08,1.13-.57,1.13-1.13,0-.67-.52-1.05-1.13-1.13-11.68-1.52-23.47-2.23-35.25-2.11-3.33.03-6.67.14-10,.3-1.44.07-1.45,2.32,0,2.25h0Z"/>
    <path class="cls-6" d="M223.83,581.55c10.18.87,20.26,2.73,30.09,5.51,2.78.79,5.54,1.65,8.28,2.59.58.2,1.23-.23,1.39-.79.17-.62-.21-1.19-.79-1.39-9.79-3.35-19.9-5.76-30.16-7.19-2.93-.41-5.86-.74-8.81-.99-.61-.05-1.13.55-1.13,1.13,0,.65.52,1.07,1.13,1.13h0Z"/>
    <path class="cls-5" d="M173.5,598.23c-.31-3.2-3.83-3.62-6.41-3.81-.9-.07-1.97-.17-2.85.07-1.5.41-2.99,1.35-4.26,2.22-.62.43-1.22.89-1.82,1.35-.31.24-.63.49-.94.73-.13.1-.26.2-.39.3-.2.16.18-.13-.17.13-.56.41-1.12.81-1.71,1.17-.29.17-.58.34-.88.49-.15.08-.31.15-.47.22-.15.07-.16.07-.02,0l-.26.1c-1.71.61-3.86.53-4.87,2.3s.01,3.92,1.35,5.17c1.49,1.39,3.83,1.73,5.73,2.31l-1.75-1.75v.04c.1-.64.18-1.28.27-1.93-.06.14.47-.39.11-.17-.12.07-.23.2-.33.29-.45.4.35-.18-.13.09l3.42,3.42c.94-1.57-.02-3.43-1.66-3.94-1.05-.33-2.28.22-2.82,1.15l-.05.08c-1.62,2.79,2.7,5.31,4.32,2.52l.05-.08-2.82,1.15.11.04-1.1-.64.09.1-.64-2.43.22-.46c-1.3,2.17,1.27,4.65,3.42,3.42.94-.54,2.1-1.53,2.39-2.6.38-1.38-.48-2.66-1.77-3.11-.22-.08-.44-.13-.66-.2l-2.71-.82c-.22-.07-.44-.13-.66-.2.03.01.54.14.51.2,0,0-.36-.38-.34-.35.05.07.22.17.05.04-.12-.1-.04.27-.04-.07l.05.31-1.26,1.69c.06.03.46-.09.54-.11.41-.08.82-.17,1.23-.28.84-.23,1.66-.55,2.45-.91,1.18-.53,2.25-1.23,3.28-2.01,1.35-1.02,1.94-1.56,3.22-2.44.59-.4,1.19-.78,1.82-1.12.37-.2.74-.38,1.12-.56.65-.31-.2.16-.43.03.2.11.94-.02,1.17-.01.56.02,1.12.07,1.68.12.13.01.48.08-.08-.01.13.02.25.04.38.06.27.05.53.1.8.17.11.03.21.06.32.09.4.11.06.05-.12-.06.07.05.15.07.22.12-.58-.42-.8-.86-.88-1.63.13,1.34,1.06,2.5,2.5,2.5,1.25,0,2.63-1.15,2.5-2.5h0Z"/>
    <path class="cls-5" d="M205.94,607.31c1.29.34,2.52.82,3.78,1.23,1.39.46,2.83.72,4.3.8v-5c-2.83.05-5.66.24-8.45.75s-5.43,1.42-8.02,2.56c-1.14.5-1.46,2.09-1.02,3.12.47,1.12,1.75,1.81,2.95,1.45.35-.1.7-.21,1.05-.31,1.25-.37,2.17-1.77,1.75-3.08s-1.73-2.15-3.08-1.75c-.35.1-.7.21-1.05.31l1.93,4.57c4.44-1.94,8.98-2.53,13.95-2.62,1.31-.02,2.56-1.13,2.5-2.5s-1.1-2.43-2.5-2.5c-.09,0-1.09-.09-.63-.03-.31-.04-.63-.11-.93-.18-.55-.13-1.09-.3-1.62-.48-1.19-.4-2.35-.85-3.57-1.16s-2.77.42-3.08,1.75.39,2.72,1.75,3.08h0Z"/>
    <g>
      <path class="cls-1" d="M118.06,609.7c1.3-.14,2.61-.2,3.91-.35.36-.04.83-.22.74-.55"/>
      <path class="cls-6" d="M118.06,612.2c1.04-.11,2.09-.18,3.14-.27.26-.02.52-.05.77-.08.53-.06.89-.12,1.37-.32.61-.26,1.1-.64,1.47-1.2.14-.21.25-.48.32-.72.14-.5.09-.97,0-1.47-.11-.58-.65-1.2-1.15-1.49-.54-.31-1.33-.45-1.93-.25s-1.19.57-1.49,1.15l-.25.6c-.12.44-.12.89,0,1.33v.05c-.02-.22-.05-.44-.08-.66v.05c.03-.22.06-.44.09-.66,0,.03-.01.06-.02.09l.25-.6s-.03.06-.05.08l.39-.51s-.05.05-.07.07l.51-.39c-.06.04-.13.08-.2.11l.6-.25c-.11.04-.23.07-.35.1l.66-.09c-1.32.17-2.65.21-3.96.35-.34-.01-.67.06-.96.22-.31.1-.58.27-.8.52-.43.43-.76,1.15-.73,1.77s.24,1.32.73,1.77c.46.42,1.12.8,1.77.73h0Z"/>
    </g>
    <g>
      <path class="cls-3" d="M45.06,598.16c-7.25,1.79-13.86,5.31-18.59,11.09-2.83,3.46-4.04,6.35-3.43,10.92.49,3.76,2.02,6.86,4.41,9.8,1.6,1.98,5.24,4.31,7.5,5.49,8.91,4.69,19.38,5.35,29.44,4.88,16.18-.76,32.49-4.3,46.46-12.49,2.49-1.46,5.09-3.12,7.98-3.1.57,0,1.16.08,1.67.33.74.36,1.26,1.06,1.61,1.8,1.15,2.4.71,5.33-.58,7.66s-3.34,4.14-5.46,5.73c-7.94,5.97-17.48,9.58-27.24,11.44s-19.77,2.04-29.7,1.63c-9.43-.39-19-1.33-27.74-4.9-6.15-2.51-11.78-6.3-16.42-11.06-2.11-2.16-4.04-4.56-5.23-7.33-1.17-2.72-1.6-5.72-1.57-8.68.08-9.12,4.55-18.05,11.63-23.79,7.08-5.74,17.66-9.98,26.37-10.79.4,2.4.19,5-.03,7.43-.04.49-.09.98-.21,1.46-.09.34-.22.67-.35,1-.23.59-.29.88-.52,1.47Z"/>
      <path class="cls-6" d="M44.39,595.75c-5.09,1.28-10.04,3.38-14.24,6.57-3.96,3-8.08,7.13-9.34,12.1s.31,10.88,3.23,15.16,7.34,7.14,11.99,9.18c10.66,4.68,22.68,4.71,34.08,3.7s23.34-3.61,34.15-8.42c2.55-1.13,5.04-2.4,7.46-3.8,2.07-1.19,4.57-3.14,7.1-2.98,2.03.13,1.47,3.72,1.02,4.98-.86,2.4-2.92,4.25-4.88,5.77-8.91,6.88-20.04,10.47-31.07,12.02-6.2.87-12.5,1.08-18.75,1s-12.13-.31-18.12-1.13-11.47-2.15-16.7-4.62c-4.93-2.33-9.44-5.47-13.28-9.34-1.92-1.94-3.7-4.04-4.87-6.54s-1.52-5.29-1.5-8.01c.05-4.91,1.49-9.74,3.96-13.96,5.21-8.89,15.06-14.17,24.74-16.81,2.23-.61,4.5-1.08,6.8-1.31l-2.41-1.84c.28,1.84.13,3.77-.02,5.61-.13,1.6-.54,2.91-1.09,4.42-.47,1.27.52,2.74,1.75,3.08,1.39.38,2.61-.47,3.08-1.75.71-1.94,1.1-3.68,1.27-5.75.19-2.34.19-4.61-.16-6.94-.15-.99-1.42-1.93-2.41-1.84-5.55.54-10.89,2.08-16,4.28s-9.67,4.88-13.61,8.52c-8.08,7.45-12.63,19.35-10.3,30.25,1.27,5.94,5.4,10.69,9.87,14.57s9.52,6.93,15.01,9.11c11.61,4.61,24.78,5.07,37.13,5s25.13-1.66,36.72-6.58c5.31-2.25,10.47-5.18,14.82-8.99s7.62-10.33,4.02-15.6c-4.06-5.93-11.72-.51-16.15,1.92-5.16,2.83-10.63,5.03-16.27,6.7-11.24,3.33-23.22,4.82-34.93,4.45-5.89-.18-11.8-1.04-17.29-3.24-4.45-1.78-8.93-4.48-11.45-8.65s-3.33-9.23-.66-13.38,6.97-7.41,11.46-9.57c2.31-1.11,4.75-1.9,7.22-2.52,3.12-.78,1.8-5.61-1.33-4.82Z"/>
    </g>
    <ellipse class="cls-3" cx="115.81" cy="587.86" rx="25.93" ry="21.39"/>
    <path class="cls-3" d="M94.41,557.75c-1.48-.91-3.21-1.33-4.93-1.59-7.7-1.16-15.81.71-22.22,5.13l31.12,11.88c.25-1.12.47-2.25.59-3.4.49-4.5-.71-9.64-4.55-12.02Z"/>
    <path class="cls-3" d="M237.64,590.45c.82.73,1.66,1.43,2.5,2.12-.83-.42-1.67-.81-2.52-1.19-.08,4.89-.3,9.76-.66,14.63-.19,2.53-.42,5.07-1.11,7.52-1.43,5.03-4.73,9.27-8.04,13.34-3.62,1.05-7.23,2.08-10.85,3.1.04-3.23-.07-6.68-1.51-9.56-.13-.27-.28-.54-.45-.8-2.1-3.44-6.02-5.47-9.7-7.26-1.99-.96-4.02-1.93-6.11-2.67-.02-.01-.05-.02-.07-.02-1.75-.63-3.54-1.09-5.39-1.24-.24-.02-.49-.04-.73-.05-1.49-.05-3.02.13-4.35.8-.48.24-.91.55-1.32.88-.31.25-.59.54-.85.83-.96,1.04-1.73,2.28-2.45,3.49-.27-.46-.57-.89-.88-1.32-2.72-3.77-6.8-6.52-11.28-7.76-1.72-.47-3.5-.72-5.27-.71-1.83,0-3.66.25-5.39.84-1.7.57-3.25,1.43-4.73,2.44-.27.17-.54.37-.8.56-1.08.76-2.11,1.6-3.14,2.42-.72.59-1.46,1.19-1.93,1.99-1.15,1.97-.35,4.45.49,6.57,1.29,3.3,1.42,4.52,2.61,7.64.05.14.1.28.16.44.3.77,1.13,1.28,1.85,1.69-5.89,2.14-12.27,2.95-18.51,2.33-1.38-.14-2.79-.37-4.1-.81-.24-.08-.48-.17-.7-.28-.3-.13-.58-.28-.86-.44-.16-.09-.31-.19-.46-.29-.05-.03-.11-.06-.15-.1-.09-.06-.17-.14-.26-.21-.11-.09-.23-.16-.34-.25-.62-.53-1.13-1.16-1.56-1.84-.03-.04-.07-.09-.1-.14-.59-.92-1.07-1.94-1.51-2.95-1.13-2.55-2.19-5.13-3.19-7.74-.69-1.82-1.35-3.71-1.23-5.64.06-.84.26-1.67.55-2.47.33-.9.75-1.79,1.18-2.65,3.12-6.34,6.36-12.62,9.61-18.89l-.3-.11-35.4-13.51c.1-.45.19-.9.28-1.35.12-.68.23-1.36.3-2.05.41-3.77-.37-7.99-2.9-10.67-.32-.35-.68-.66-1.06-.95-.19-.14-.4-.27-.6-.41-1.48-.91-3.21-1.33-4.93-1.6-3.43-.51-6.94-.43-10.35.21-.67.13-1.33.27-1.98.45-1.62.42-3.19.95-4.71,1.62-.36.15-.71.32-1.07.49-1.41.67-2.77,1.45-4.06,2.34-.02.02-.03.03-.05.04l30.15,11.5.98.38c-.75,3.28-1.88,6.49-2.4,9.83-.08.52-.14,1.04-.18,1.55-.15,1.86-.05,3.76.4,5.53.11.42.23.83.38,1.24.14.41.32.8.51,1.18.48.95,1.09,1.82,1.86,2.56.16.15.31.29.49.44.85.71,1.81,1.24,2.82,1.64.72.27,1.47.5,2.26.67,3.1.7,6.52.76,9.57,1.76.51.16,1.02.37,1.49.61.49.24.94.53,1.34.88.13.12.26.24.38.38.12.12.23.26.35.41,1.24,1.67,1.18,3.93,1.07,6.01-.03.43-.05.86-.11,1.29-.02.16-.05.32-.08.48,0,.02,0,.03,0,.05-.12.57-.33,1.11-.67,1.57-1.26,1.68-3.75,1.58-5.84,1.35-9.48-1.03-19.03-1.45-28.57-1.26-6.39.12-12.82.52-19.12-.54-6.3-1.06-12.58-3.75-16.58-8.74-.19-.23-.38-.48-.55-.72-.36-.49-.68-1.01-.98-1.53-.39-.7-.7-1.42-.94-2.17-.21-.68-.36-1.38-.42-2.1-.15-1.75.22-3.5.59-5.21.24-1.16.5-2.33.74-3.49,1.08-5.01,2.13-10.02,3.21-15.04,1.01-4.7,2.04-9.49,4.39-13.69,2.03-3.64,4.96-6.69,8.01-9.53,11.51-10.76,25.33-19.33,40.59-23.23,6.56-1.67,13.29-2.48,20.03-3.13,4.73-.47,9.55-.86,14.24-.02,4.11.73,7.9,2.37,11.45,4.51.55.33,1.08.67,1.61,1.03,2.96,1.95,5.74,4.24,8.41,6.64.96.86,1.9,1.74,2.83,2.61.48.45.93.88,1.4,1.33l.04.04c-.26.67-.54,1.33-.81,1.98-1.17,2.85-2.31,5.56-2.8,8.52-.07.4-.13.8-.17,1.21-.04.42-.07.83-.08,1.27-.01.11-.01.23-.01.35,0,.21,0,.43.01.63.02,2.14.4,4.27,1.04,6.32-1.5-.25-3.01-.47-4.52-.64-.61-.07-1.13.56-1.13,1.13,0,.66.52,1.06,1.13,1.12,1.81.21,3.61.49,5.41.82.58,1.4,1.27,2.75,2.05,4.05.81,1.36,1.72,2.66,2.68,3.91-3-.11-5.99-.05-8.98.19-2.31.18-4.6.48-6.89.85-.6.1-.94.84-.78,1.39.17.63.78.88,1.38.78,5.66-.95,11.44-1.25,17.18-.87,1.32,1.53,2.71,3.01,4.14,4.45-1.41.42-2.81.89-4.2,1.41-3.96,1.49-7.77,3.36-11.37,5.6-1.22.76-.09,2.71,1.14,1.94,3.43-2.13,7.05-3.94,10.83-5.37,1.78-.67,3.6-1.27,5.44-1.77,3.9,3.82,8.06,7.39,12.7,10.25,5.28,3.25,11.24,5.57,17.43,6.02,10.76.77,15.5-1.48,26.2-3.91.03,0,1-.62,1.89-1.19.74-.48,1.42-.9,1.45-.91.36-.06.76-.26,1.04-.54.07-.07.14-.14.19-.22.18.17.38.36.57.52,1.03.97,2.07,1.9,3.14,2.81Z"/>
    <path class="cls-6" d="M177.87,566.64c2.04.95,4.04,2.12,6.35,2.15,1.45.02,1.45-2.23,0-2.25-1.87-.03-3.56-1.07-5.21-1.84-1.84-.86-3.72-1.64-5.62-2.36-3.75-1.41-7.61-2.51-11.54-3.31-.77-.16-1.55-.3-2.33-.43.25.82.55,1.63.88,2.43,6.02,1.14,11.92,3.02,17.47,5.6Z"/>
    <path class="cls-6" d="M153.88,559.1c0,.67.52,1.06,1.13,1.13,1.81.2,3.61.48,5.4.82-.33-.8-.63-1.61-.88-2.43-1.5-.25-3.01-.47-4.52-.64-.61-.07-1.13.57-1.13,1.13Z"/>
    <path class="cls-6" d="M173.18,572c2.19.33,4.37.75,6.52,1.27,1.41.34,2.01-1.83.6-2.17-4.97-1.19-10.05-1.89-15.15-2.08.61.8,1.25,1.58,1.9,2.34,2.05.13,4.1.35,6.13.65Z"/>
    <path class="cls-6" d="M156.16,569.2c-2.31.18-4.61.48-6.89.86-.6.1-.94.84-.79,1.39.17.64.78.89,1.39.79,5.66-.95,11.44-1.25,17.18-.88-.66-.76-1.29-1.54-1.9-2.34-2.99-.11-5.99-.05-8.98.18Z"/>
    <path class="cls-6" d="M173.03,577.63c.15-.04.29-.08.44-.12,2.03-.52,4.09-.81,6.18-.54.6.08,1.13-.57,1.13-1.13,0-.67-.52-1.05-1.13-1.13-2.2-.29-4.43.03-6.57.57-.63.16-1.26.33-1.88.52.08.08.16.16.24.24.53.53,1.06,1.06,1.6,1.59Z"/>
    <path class="cls-6" d="M155.63,582.82c-1.23.76-.1,2.71,1.14,1.95,3.43-2.13,7.05-3.95,10.83-5.37,1.78-.67,3.59-1.27,5.43-1.76-.54-.52-1.07-1.05-1.6-1.59-.08-.08-.16-.16-.24-.24-1.41.42-2.81.9-4.19,1.41-3.96,1.49-7.77,3.36-11.37,5.6Z"/>
    <path class="cls-6" d="M68.57,563.41c4.24-2.86,9.16-4.67,14.28-5.02,4.33-.3,10.26-.28,12.57,4.09s.81,9.28-.37,13.58c-1.37,5.01-2.7,10.34-1.04,15.47s5.7,7.93,10.8,8.88c2.38.44,4.8.6,7.16,1.15,2.07.49,3.97,1.16,4.25,3.51.14,1.13.08,2.43-.07,3.56-.12.91-.31,1.29-1.11,1.48-.86.2-1.84.09-2.72,0-1.5-.14-3-.31-4.51-.45-6.23-.56-12.48-.85-18.73-.89s-12.26.41-18.38.14c-5.09-.22-10.28-1.06-14.83-3.46-3.79-2-8.42-5.74-8.58-10.43-.1-2.97.95-6.06,1.57-8.94.66-3.09,1.32-6.17,1.98-9.26,1.19-5.57,2.02-11.56,4.65-16.69,2.46-4.8,6.52-8.55,10.52-12.07,7.81-6.89,16.69-12.77,26.33-16.77,10.68-4.42,22.15-6.07,33.6-6.92,5.59-.42,11.08-.16,16.3,2.08,4.61,1.98,8.73,5.01,12.51,8.27,1.99,1.72,3.9,3.51,5.8,5.33,2.32,2.23,5.87-1.3,3.54-3.54-8.29-7.94-17.5-15.81-29.35-17.12-6.38-.71-12.99.26-19.32,1.05s-12.51,1.9-18.53,3.86c-11.05,3.6-21.18,9.48-30.24,16.71-4.47,3.57-8.94,7.43-12.46,11.97-3.85,4.96-5.62,10.73-6.94,16.78-1.44,6.61-2.84,13.23-4.24,19.85-.66,3.11-1.09,6.21.05,9.26,1.03,2.76,2.85,5.2,5.02,7.18,9.24,8.39,22.23,8.06,33.9,7.78,6.73-.16,13.47-.04,20.19.39,3.28.21,6.56.52,9.83.85,2.53.26,5.36.17,7.28-1.73,2.06-2.04,2.17-5.56,1.94-8.28-.25-3.05-1.61-5.67-4.42-7.09-2.5-1.27-5.29-1.62-8.03-1.99-2.32-.32-4.83-.59-6.87-1.81-4.15-2.47-4.05-8.2-3.16-12.33,1.23-5.73,3.5-11.2,2.57-17.16-.4-2.53-1.41-4.96-3.08-6.93-1.83-2.16-4.48-3.35-7.22-3.88-5.74-1.1-11.85-.6-17.34,1.38-2.69.96-5.25,2.23-7.62,3.83-2.65,1.79-.15,6.12,2.52,4.32h0Z"/>
    <path class="cls-6" d="M131.75,585.21c-2.86,4.52-5.4,9.23-7.59,14.11-1.12,2.5-2.16,5.03-3.11,7.6-1,2.71-1.51,5.12-.77,7.99,1.27,4.94,3.64,10.07,6.71,14.15s8.27,5.09,13.3,5.25c5.88.19,11.54-.72,16.97-3.02,1.24-.53,1.52-2.36.9-3.42-.75-1.29-2.17-1.43-3.42-.9-3.95,1.67-8.21,2.34-12.47,2.37-3.64.02-8.56.16-11.08-2.98-2.71-3.37-4.58-7.78-5.82-11.89-.3-.98-.63-2.02-.49-3.06s.63-2.15,1.01-3.16c.8-2.16,1.66-4.3,2.6-6.4,2.19-4.88,4.73-9.59,7.59-14.11,1.72-2.73-2.6-5.24-4.32-2.52h0Z"/>
    <path class="cls-6" d="M158.35,627.43c-2.1-3.5-3.76-7.21-4.88-11.14-.21-.73-.58-1.38-.13-1.84.59-.6,1.38-1.03,2.07-1.5,1.62-1.11,3.28-2.19,5.05-3.06,3.38-1.66,7.16-2.18,10.58-.35,3.65,1.96,7,4.68,10.13,7.37,1.02.88,2.53,1,3.54,0,.9-.9,1.03-2.65,0-3.54-3.05-2.63-6.27-5.13-9.67-7.29s-7.2-3.15-11.3-2.48c-3.76.61-7.17,2.54-10.29,4.65-1.48,1-3.21,1.98-4.29,3.44-1.37,1.87-1.05,4.04-.44,6.13,1.24,4.24,3.05,8.33,5.32,12.12,1.65,2.76,5.98.25,4.32-2.52h0Z"/>
    <path class="cls-6" d="M181.45,627c-2-1.73-.59-4.47.63-6.23,1.61-2.33,3.59-4.94,6.01-6.45,4.99-3.12,11.23-1.8,16.06.93,4.12,2.32,9.88,6.36,9.94,11.61.02,1.86-.68,4.02-2.35,5-1.04.6-2.33.63-3.53.64-1.94.02-3.88-.05-5.82-.15-3.84-.2-7.68-.6-11.48-1.22-1.93-.32-3.85-.67-5.76-1.1-1.11-.25-2.31-.44-2.77-1.47-.55-1.23-2.34-1.53-3.42-.9-1.27.74-1.45,2.18-.9,3.42,1.58,3.5,6.31,3.94,9.59,4.53,4.3.78,8.66,1.33,13.02,1.63,2.19.15,4.39.23,6.59.25,1.97.02,3.98-.03,5.83-.77,3.12-1.26,5.23-4.27,5.78-7.55,1.29-7.7-4.78-13.57-10.73-17.35-6.42-4.07-14.67-5.99-21.72-2.3-3.73,1.96-6.79,5.78-9.03,9.28s-3,8.71.51,11.76c1.02.88,2.53,1,3.54,0,.9-.9,1.02-2.65,0-3.54h0Z"/>
    <path class="cls-6" d="M157.1,626.58l-.72-.09v5c7.72.55,15.46.45,23.16-.29,1.34-.13,2.5-1.06,2.5-2.5,0-1.25-1.15-2.63-2.5-2.5-7.7.75-15.45.85-23.16.29-1.35-.1-2.5,1.22-2.5,2.5,0,1.49,1.15,2.34,2.5,2.5l.72.09c1.34.16,2.5-1.27,2.5-2.5,0-1.49-1.15-2.34-2.5-2.5h0Z"/>
    <path class="cls-6" d="M226.84,624.86c-3.62,1.2-7.22,2.48-10.79,3.81-1.22.45-2.19,1.71-1.75,3.08.39,1.2,1.76,2.23,3.08,1.75,3.58-1.33,7.17-2.61,10.79-3.81,1.24-.41,2.18-1.74,1.75-3.08-.4-1.23-1.75-2.19-3.08-1.75h0Z"/>
    <path class="cls-6" d="M248.03,547.3c2.39,4.36,4.34,8.93,5.79,13.69.63,2.07,1.55,4.26.51,6.33s-2.48,3.7-4.05,5.25c-3.36,3.33-7.34,6.09-11.37,8.54s-8.33,4.61-12.8,6.21c-8.91,3.18-18.59,4.37-27.78,1.66s-17.29-7.55-23.94-13.82-12.42-14.8-13.46-24.44c-.15-1.34-1.04-2.5-2.5-2.5-1.24,0-2.65,1.15-2.5,2.5.53,4.87,1.8,9.51,4.05,13.88s5.06,7.99,8.23,11.42c6.92,7.49,15.94,13.08,25.45,16.66,10.11,3.8,21.04,3.48,31.27.3s19.71-8.58,27.52-15.59c2.12-1.9,4.06-4.06,5.58-6.47.76-1.22,1.43-2.58,1.68-4,.3-1.72.01-3.39-.43-5.07-1.58-5.94-3.97-11.7-6.92-17.08-1.55-2.82-5.87-.3-4.32,2.52h0Z"/>
    <path class="cls-6" d="M244.85,595.18l-4.7-2.61c-.83-.42-1.67-.81-2.52-1.19-2.08-.96-4.22-1.81-6.37-2.59-.36-.13-.71-.26-1.07-.39l-.76-.27c-2.89-1.02-5.79-1.94-8.69-2.87-1.38-.44-.79-2.61.6-2.17,2.58.82,5.16,1.65,7.71,2.53,1.19.41,2.37.83,3.55,1.28.17.06.34.12.51.19.21.07.43.16.64.24.25.09.51.19.76.29,1.49.59,2.97,1.22,4.43,1.87h.01c5.47,2.52,10.62,5.64,14.97,9.86.69.67.23,1.6-.46,1.84-.36.14-.77.1-1.13-.24-.46-.45-.92-.87-1.4-1.3t-.01-.01c-1.45-1.27-2.99-2.45-4.59-3.52-.48-.31-.97-.63-1.45-.93h-.02Z"/>
    <path class="cls-6" d="M161.87,535.91c-1.49,2.19-2.44,4.79-3.54,7.19-1.21,2.65-2.35,5.29-2.45,8.25-.05,1.31,1.18,2.56,2.5,2.5,1.39-.06,2.45-1.1,2.5-2.5,0-.09.08-1.05.02-.59.04-.29.1-.58.17-.86.14-.62.33-1.22.54-1.82.09-.24.18-.48.27-.71.11-.28.13-.32.04-.11.07-.16.13-.31.2-.47.24-.55.5-1.1.75-1.65,1.03-2.24,1.92-4.66,3.31-6.7.74-1.08.24-2.82-.9-3.42-1.27-.67-2.63-.26-3.42.9h0Z"/>
  </g>
  <path class="cls-6" d="M235.16,588.97c-.02,3.57-.14,7.14-.31,10.71s-.26,6.98-.8,10.4c-.97,6.11-4.65,11.03-8.52,15.67-.86,1.04-1.02,2.52,0,3.54.89.89,2.67,1.04,3.54,0,4.28-5.13,8.52-10.67,9.72-17.4.66-3.69.81-7.48,1.01-11.22s.34-7.79.36-11.68c.02-3.22-4.98-3.22-5,0h0Z"/>
</svg>