<?xml version="1.0" encoding="UTF-8"?>
<svg id="Layer_1" data-name="Layer 1" xmlns="http://www.w3.org/2000/svg" viewBox="0 0 1028.59 777.54">
  <defs>
    <style>
      .cls-1 {
        fill: #dca937;
      }

      .cls-2 {
        fill: #c3585a;
      }

      .cls-3 {
        fill: #e49264;
      }

      .cls-4 {
        fill: #231f20;
      }

      .cls-5 {
        stroke-width: 2px;
      }

      .cls-5, .cls-6 {
        fill: none;
        stroke: #231f20;
        stroke-linecap: round;
        stroke-miterlimit: 10;
      }

      .cls-7 {
        fill: #7888c3;
      }

      .cls-8 {
        fill: #dd7b53;
      }

      .cls-6 {
        stroke-width: 4px;
      }

      .cls-9 {
        fill: #be952e;
      }
    </style>
  </defs>
  <path class="cls-9" d="M384.52,265.94c5.8-2.35,5.81,11.84,8.16,17.65,2.35,5.8-.93,16.63-6.73,18.97-5.8,2.35-10.35,1.84-12.7-3.96-2.35-5.8,5.46-30.31,11.27-32.66Z"/>
  <path class="cls-9" d="M535.25,231.89c18.27,74.47,67.86,93.5,100.25,97.78,83.85,11.07-13.32-51.73-14.01-111.58-.69-59.53-10.6-104.56-42.49-100.38-31.89,4.18-57.92,56.38-43.75,114.18Z"/>
  <path class="cls-9" d="M363.5,221.48c9.21,2.16-3.14,19.68-5.29,28.89-2.16,9.21-15.63,19.72-24.84,17.57s-14.38-6.74-12.22-15.95c2.16-9.21,33.14-32.67,42.36-30.51Z"/>
  <path class="cls-9" d="M352.64,251.34c7.94-5.14,12.14-4.68,17.28,3.27,5.14,7.94,3.36,24.94-4.58,30.08-7.94,5.14-14.83,5.68-19.97-2.26-5.14-7.94-.67-25.94,7.27-31.08Z"/>
  <path class="cls-1" d="M521.67,240.76c6.96-8.35,18.59,13.36,26.94,20.32,8.35,6.96,12.2,26.21,5.24,34.56-6.96,8.35-14.33,11.29-22.68,4.33s-16.46-50.86-9.5-59.21Z"/>
  <path class="cls-1" d="M546.74,267.31c-1.18-10.81,1.45-14.88,12.26-16.06,10.81-1.18,27.34,9.4,28.52,20.2,1.18,10.81-1.81,18.15-12.61,19.34s-26.98-12.67-28.17-23.48Z"/>
  <path class="cls-9" d="M596.9,166.76c-16.5-8.93-19.69-16.68-10.75-33.17,8.93-16.5,40.19-29.57,56.68-20.63,16.5,8.93,23.98,20.4,15.05,36.9-8.93,16.5-44.49,25.84-60.98,16.91Z"/>
  <path class="cls-9" d="M595.56,130.23c-17.8,5.91-25.63,2.94-31.54-14.87-5.91-17.8,5.95-49.54,23.76-55.45,17.8-5.91,31.29-3.52,37.2,14.28,5.91,17.8-11.61,50.12-29.41,56.03Z"/>
  <path class="cls-3" d="M590.49,193.2l-31.04,68.66c-12.16,19.77-25.96,33.89-46.17,42.01-13.34,5.35-29.47,8.09-49.76,8.11-93.76.08-113.24-50.12-118.28-96.9-2.19-20.3-.2-39.55,5.09-57.05,16.25-53.82,63.64-91.07,116.36-91.07,66.4,0,143.39,39.02,123.81,126.24Z"/>
  <path class="cls-3" d="M606.88,218.21c-.58,30.2-47.43,43.65-47.43,43.65l31.04-68.66c3.49.69,5.52,2.02,5.52,2.02,0,0,11.19,6.56,10.88,23Z"/>
  <path class="cls-5" d="M595.69,215.46s-14.79-24.91-31.39,8.23"/>
  <path class="cls-5" d="M573.89,241.45s10.69-1.5,11.65-12.34c.6-6.77-6.73-9.93-6.73-9.93,0,0-8.95-4.1-14.04,3.55"/>
  <path class="cls-8" d="M540.39,286.28c-7.74,7.47-16.55,13.35-27.11,17.59-13.34,5.36-29.47,8.09-49.76,8.11-93.75.09-113.23-50.12-118.28-96.91-2.19-20.3-.2-39.55,5.09-57.05,7.72-25.56,22.45-47.38,41.46-63.24-8.01,17.38-12.49,36.74-12.49,57.13,0,75.43,61.14,136.56,136.56,136.56,8.37,0,16.58-.76,24.53-2.2Z"/>
  <path class="cls-6" d="M448.39,228.04v9.65s-7.66,1.45-6.78,9.89c.43,4.11,5.79,4.97,6.99,4.97,2.61,0,6.65-1.37,6.99-5.31"/>
  <path class="cls-4" d="M413.8,237.83c1.05,6.03-1.42,11.5-5.52,12.21s-8.28-3.59-9.33-9.62c-.53-3.01-.17-5.89.83-8.1s2.64-3.76,4.69-4.11c2.25-.39,4.53.73,6.3,2.82,1.45,1.72,2.56,4.08,3.03,6.8Z"/>
  <path class="cls-4" d="M497.53,230.14c.56,3.24.11,6.31-1.06,8.58-1.01,1.95-3.12,1.64-5.02,1.97-2.14.37-3.75,1.04-5.48-.86-1.58-1.73-2.8-4.22-3.3-7.1-1.05-6.03,1.42-11.5,5.52-12.21s8.28,3.59,9.33,9.62Z"/>
  <path class="cls-6" d="M380.98,208.62s5.27-19.92,24.93-5.66"/>
  <path class="cls-6" d="M488.97,193.21s22.53-17.33,26.82,14.83"/>
  <path class="cls-6" d="M401.75,235.5s-3.67,2.57-10.81-4.83"/>
  <path class="cls-6" d="M405.3,233.3s-4.46.46-7.1-9.47"/>
  <path class="cls-6" d="M401.81,237.48s-1.51,4.22-11.61,2.32"/>
  <path class="cls-6" d="M493.77,223.89s3.67,2.57,10.81-4.83"/>
  <path class="cls-6" d="M490.22,221.68s4.46.46,7.1-9.47"/>
  <path class="cls-6" d="M493.72,225.86s1.51,4.22,11.61,2.32"/>
  <path class="cls-7" d="M567.12,77.43s26.06,5.66,42.38,34.61c16.64,29.49.24,58.06.24,58.06l-42.63-92.67Z"/>
  <g>
    <path class="cls-9" d="M605.11,155.6c0,11.91-1.2,21.03-4.28,27.83-5.5,12.16-16.99,16.89-38.31,16.89-22.67,0-51.62-17.53-67.72-39.22-4.12-5.55-7.39-11.37-9.51-17.23-.69,18.21,3.68,31.59,5.32,39.79,1.82,9.02.34,11.78-14.75,7.83-28.9-7.58-45.85-22.97-50.36-47.69-.79-4.26-1.2-8.8-1.23-13.62-.49,2.48-1.04,4.98-1.64,7.49-4.43,18.36-9.87,33.4-18.21,46.01-8.83,13.37-20.89,24.02-38.39,33.02-16.71,8.59-25.04-34.96-19.32-78.54-27.44,19.53-47.86,38.02-54.38,18.09-5.05-15.46-5.91-41.22,18.75-70.54,0,0,0,0,.01-.01,5.08-6.04,11.23-12.22,18.65-18.49,33.14-28.03,72.78-33.41,84.6-18.94,1.75,1.88,3.35,4.13,4.79,6.72,4.31-.58,8.79-.9,13.4-.9,14.77,0,28.33,3.17,38.94,8.47-.37-3.51-.53-7.99.07-12.45,2.48.92,4.85,1.93,7.08,3.05-.54-5.19-.66-12.51,1.54-18.7,1.98-1.23,4.39-2.08,7.29-2.42,14.95,1.68,25.4,11.79,29.27,29.23,1.02-.76,2.09-1.5,3.21-2.21,11.7-5.45,20.51-8.81,36.87-5.45,2.29,11.26-.74,17.92-8.53,26.56,28.39,13.24,56.85,48.91,56.85,75.47Z"/>
    <path class="cls-1" d="M612.25,146.2c0,18.66-2.96,30.47-11.43,37.23-6.61,5.27-16.59,7.49-31.15,7.49-28.47,0-69.6-26.7-80-55.51-2.81-7.48-6.92-27.12-5.45-19.9-2.16,16.14-1.52,18.54,1.06,28.37-.69,18.21,3.68,31.59,5.32,39.79-2.03-.25-4.54-.78-7.6-1.58-33.89-8.88-44.34-14.25-53.6-43.22-.72-3.97-1.53-7.35-2.16-11.18-.91-5.55-1.8-11.63-3.01-17.43-.79-4.26.53,13.66.03,19.94-.49,2.48-1.04,4.98-1.64,7.49-4.43,18.36-9.87,33.4-18.21,46.01-7.95,9.11-18.04,16.83-31.23,23.62-16.71,8.6-25.04-34.96-19.33-78.54-27.44,19.53-47.86,38.03-54.37,18.09-4.51-13.78-5.68-35.74,11.6-61.14,0,0,0,0,.01-.01,6.09-8.94,14.47-18.31,25.8-27.9,33.14-28.02,72.78-33.4,84.6-18.94,1.75,1.88,3.35,4.13,4.79,6.72,4.31-.58,8.8-.9,13.4-.9,11.66,0,22.56,1.98,31.87,5.42,2.48.92,4.85,1.93,7.08,3.05-.54-5.19-.66-12.51,1.54-18.7,2.11-5.96,6.37-10.87,14.43-11.82,14.96,1.68,25.4,11.79,29.28,29.22,1.02-.76,2.09-1.49,3.2-2.21,11.7-5.45,20.52-8.81,36.87-5.45,2.29,11.26-.73,17.92-8.53,26.55,28.39,13.25,56.85,48.91,56.85,75.47Z"/>
  </g>
  <path class="cls-4" d="M497.53,230.14c1.05,6.03-1.42,11.5-5.52,12.21s-8.28-3.59-9.33-9.62c-.53-3.01-.17-5.89.83-8.1s2.64-3.76,4.69-4.11c2.25-.39,4.53.73,6.3,2.82,1.45,1.72,2.56,4.08,3.03,6.8Z"/>
  <path class="cls-4" d="M484.16,284.6c-7.34-4.66-18-3.77-18-3.77,0,0-13.36,2.06-23.87,6.35-7.49,3.07-9.02,4.36-9.11,4.44h0c-10.83-3.43-18.75-9.84-14.72-18.84,7.33-16.37,18.23,2.38,32.88,3.14,16.52.86,28.17-20.38,34.44-3.26,1.81,4.94.92,8.86-1.62,11.94Z"/>
  <path class="cls-2" d="M484.16,284.6c-6.04,7.37-21.42,9.9-31.4,9.93-4.15.02-8.58-.4-12.88-1.23-2.3-.45-4.56-1.01-6.7-1.69.09-.08,1.62-1.37,9.11-4.44,10.51-4.3,23.87-6.35,23.87-6.35,0,0,10.65-.89,18,3.77Z"/>
</svg>