<?xml version="1.0" encoding="UTF-8"?>
<svg id="Layer_3" data-name="Layer 3" xmlns="http://www.w3.org/2000/svg" viewBox="0 0 1028.59 777.54">
  <defs>
    <style>
      .cls-1 {
        fill: #494646;
      }

      .cls-1, .cls-2 {
        stroke: #231f20;
        stroke-miterlimit: 10;
      }

      .cls-2 {
        fill: #fffdf3;
      }
    </style>
  </defs>
  <path class="cls-1" d="M688.2,276.01l-53.11-25c-6.45-3.04-14.14-.27-17.17,6.18l-4.77,10.13c-1.71,3.63-.15,7.97,3.48,9.68l63.3,29.8c3.64,1.71,7.97.15,9.68-3.48l4.77-10.13c3.04-6.45.27-14.14-6.18-17.17h0ZM681.71,289.14c-.85.3-1.82.29-2.71-.13l-46.17-21.73c-1.77-.83-2.53-2.94-1.7-4.71.42-.88,1.15-1.52,2-1.82.85-.31,1.83-.29,2.71.13l46.17,21.73c1.77.83,2.53,2.95,1.7,4.71-.42.88-1.15,1.52-2.01,1.83h.01Z"/>
  <path class="cls-2" d="M631.42,283.95l.52,4.2c.28,2.27-.1,4.58-1.1,6.65l-11.97,24.73c-1.34,2.84-.12,6.24,2.73,7.58l15.34,7.22c2.84,1.34,6.24.12,7.58-2.73l11.7-24c.91-1.67,2.54-3.62,5.01-4.96l4.39-2.59-34.19-16.09h-.01ZM642.43,321.16c-1.17,2.49-4.14,3.55-6.62,2.38l-4.58-2.16c-2.49-1.17-3.55-4.13-2.38-6.62l4.89-10.38c1.17-2.49,4.13-3.55,6.62-2.38l4.58,2.16c2.48,1.17,3.55,4.13,2.38,6.62l-4.89,10.38Z"/>
</svg>