<?xml version="1.0" encoding="UTF-8"?>
<svg id="Layer_3" data-name="Layer 3" xmlns="http://www.w3.org/2000/svg" viewBox="0 0 1028.59 777.54">
  <defs>
    <style>
      .cls-1 {
        fill: #2c2c2c;
      }

      .cls-2 {
        fill: #d33f27;
      }

      .cls-3 {
        fill: #494646;
      }
    </style>
  </defs>
  <path class="cls-3" d="M304.83,576.6l-9.25,39.33c-.14.61-.49,1.15-.99,1.53l-7.23,5.5c-1.04.79-2.48.72-3.43-.17l-24.97-23.37c-.71-.67-1.01-1.68-.78-2.63l8.99-36.29c.2-.81.76-1.48,1.52-1.82l7.76-3.43c.87-.39,1.89-.27,2.66.3l24.69,18.25c.87.64,1.27,1.74,1.02,2.8h.01Z"/>
  <path class="cls-2" d="M277.19,555.77l-8.01,3.29s-.76.28.34,1.11c2.07,1.56,1.89,1.46,25.17,19.86,0,0,.55.79,1.88,0s7.16-4.83,7.16-4.83c0,0,.79-.37-.42-1.22s-25.02-18.21-25.02-18.21c0,0-.44-.33-1.09,0h-.01Z"/>
  <path class="cls-1" d="M282.42,558.79l16.42,11.9-.89.53s-.38.21-1.01-.18c-4.15-2.9-8.9-6.38-14.86-10.95,0,0-.5-.64.04-1.07.37-.3.29-.22.29-.22h0Z"/>
</svg>