<?xml version="1.0" encoding="UTF-8"?>
<svg id="Layer_3" data-name="Layer 3" xmlns="http://www.w3.org/2000/svg" viewBox="0 0 1028.59 777.54">
  <defs>
    <style>
      .cls-1 {
        fill: #78a14f;
      }

      .cls-2 {
        fill: #736745;
      }

      .cls-3 {
        fill: #fff;
        stroke: #231f20;
        stroke-miterlimit: 10;
      }

      .cls-4 {
        fill: #d0eff0;
      }

      .cls-5 {
        fill: #a4dfeb;
      }

      .cls-6 {
        fill: #71974b;
      }

      .cls-7 {
        fill: #688548;
      }

      .cls-8 {
        fill: #8ba146;
      }

      .cls-9 {
        fill: #98b04d;
      }

      .cls-10 {
        fill: #86b359;
      }
    </style>
  </defs>
  <polygon class="cls-3" points="1026.37 42.57 1026.37 357.84 879.28 319.52 878.93 319.43 878.92 319.43 870.95 317.35 866.77 316.26 866.76 316.26 866.42 316.17 784.83 283.7 783.17 283.04 783.16 283.04 772.9 278.94 772.87 278.93 772.82 278.93 772.81 278.92 765.48 276 765.47 276 765.46 275.99 757.39 272.78 757.35 272.77 757.33 272.76 756.51 272.43 756.09 272.27 756.08 272.26 733.31 263.2 721.08 258.33 720.56 258.13 720.56 258.12 691.57 246.59 703.6 238.45 721.08 226.62 727.32 222.39 732.84 218.66 742.93 211.83 742.93 211.82 772.48 191.83 777.2 188.63 795.48 176.26 797.74 174.73 800.89 172.6 804.58 170.1 804.59 170.1 807.14 168.37 809.45 166.81 823.53 157.28 826.73 155.11 859.09 133.21 859.1 133.2 874.17 123 874.65 122.75 874.65 122.74 882.33 118.69 884.5 117.54 910.58 103.76 914.47 101.7 914.48 101.7 930.75 93.1 933.67 91.56 1026.37 42.57"/>
  <g>
    <path class="cls-5" d="M1027.57,133.86v185.66h-147.29l-.35-.09h0l-7.97-2.08-4.18-1.09h0l-.34-.09-81.59-32.47-1.66-.66h0l-10.26-4.1h-.03s-.05-.01-.05-.01h-.01s-7.33-2.93-7.33-2.93h-.02s-8.07-3.22-8.07-3.22h-.04s-.02-.02-.02-.02l-.82-.33-.42-.16h0s-22.77-9.07-22.77-9.07l-12.23-4.87-.52-.2h0s-28.99-11.54-28.99-11.54l12.03-8.14,17.48-11.83,6.24-4.23,5.52-3.73,10.09-6.83h0s29.55-20,29.55-20l4.72-3.2,18.28-12.37,2.26-1.53,3.15-2.13,3.69-2.5h0l2.55-1.73,2.31-1.56,14.08-9.53,3.2-2.17,32.36-21.9h0s15.07-10.21,15.07-10.21l.48-.25h0s7.68-4.06,7.68-4.06l2.17-1.15,26.08-13.78,3.89-2.06h.01l16.27-8.6,2.92-1.54,92.7-48.99v91.18c.07.03.13.07.2.11Z"/>
    <g>
      <circle class="cls-4" cx="999.03" cy="126.39" r="22.1"/>
      <path class="cls-4" d="M1027.57,133.86v12.42h-1.19c-3.06-2.71-5.42-6.17-6.8-10.09-.12-.31-.21-.62-.31-.92-.17-.54-.33-1.06-.44-1.62-.37-1.52-.6-3.11-.64-4.77-.02-.25-.02-.52-.02-.78,0-3.18.62-6.19,1.73-8.98.02-.08.06-.15.1-.23,1.58-3.88,4.14-7.24,7.37-9.81v24.67c.07.03.13.07.2.11Z"/>
      <path class="cls-4" d="M997.71,147.46c.07-1.03.04-2.06-.13-3.09-1.92-12.05-19.76-19.23-39.85-16.03-15.33,2.44-27.53,10.22-31.6,19.12h71.57Z"/>
      <path class="cls-4" d="M1027.57,133.86v12.42h-101.44l.66-.1,32.54-4.42,2.06-.28,5.86-.79,3.19-.44,10.32-1.41.49-.08,5.69-.76,3.26-.45,3.81-.51h.02l18.85-2.58h0l5.94-.81,1.13-.15,3.17-.44h0l2.4-.33h.02l1.81-.24v1.26c.07.03.13.07.2.11Z"/>
    </g>
    <polygon class="cls-1" points="1003.16 101.48 997.75 128.1 1009.04 128.08 1003.16 101.48"/>
    <polygon class="cls-1" points="1017.94 109.58 1012.54 136.2 1023.83 136.19 1017.94 109.58"/>
    <g>
      <polygon class="cls-6" points="1027.57 157.28 1027.57 345.8 1027.37 345.75 1027.37 357.84 880.28 319.52 879.93 319.43 879.92 319.43 871.95 317.35 867.77 316.26 867.76 316.26 867.42 316.17 785.83 283.7 784.17 283.04 784.16 283.04 773.9 278.94 773.87 278.93 773.82 278.93 773.81 278.92 766.48 276 766.47 276 766.46 275.99 758.39 272.78 758.35 272.77 758.33 272.76 757.51 272.43 757.09 272.27 757.08 272.26 734.31 263.2 722.08 258.33 721.56 258.13 721.56 258.12 692.57 246.59 704.6 238.45 722.08 226.62 728.32 222.39 733.84 218.66 743.93 211.83 743.93 211.82 773.48 191.83 778.2 188.63 796.48 176.26 798.74 174.73 801.89 172.6 805.58 170.1 805.59 170.1 808.14 168.37 810.45 166.81 824.53 157.28 1027.57 157.28"/>
      <polygon class="cls-10" points="1027.37 345.75 1027.37 357.84 880.28 319.52 879.93 319.43 879.92 319.43 871.95 317.35 867.77 316.26 867.76 316.26 867.42 316.17 785.83 283.7 925.27 319.52 1027.37 345.75"/>
    </g>
    <path class="cls-10" d="M1027.57,133.86v50h-.2s-72.62-2.9-72.62-2.9l-42.45-1.7h0l-2.85-.11h-.01l-26.1-1.04-.67-.03-5.64-.22-67.14-2.68-11.14-.45,3.15-2.13,3.69-2.5h0l2.55-1.73,2.31-1.56,14.08-9.53,3.2-2.17,32.36-21.9h0s15.07-10.21,15.07-10.21l.48-.25h0s7.68-4.06,7.68-4.06l2.17-1.15,26.08-13.78c11.61.77,22.86,1.95,33.71,3.58,12.19,1.84,23.87,4.26,35,7.33,6.51,1.8,12.83,3.82,18.95,6.08,3.04,1.13,6.03,2.31,8.96,3.56h0c2.09.88,4.14,1.8,6.18,2.74,1.28.6,2.55,1.21,3.8,1.83.88.43,1.75.87,2.61,1.32.65.33,1.29.66,1.93,1,.95.5,1.89,1.01,2.83,1.53.61.34,1.21.68,1.81,1.02.07.03.13.07.2.11Z"/>
    <g>
      <ellipse class="cls-7" cx="888.42" cy="263.09" rx="41.79" ry="18.82"/>
      <g>
        <path class="cls-9" d="M808.14,168.37c.48,2.31,1.06,4.58,1.74,6.81,9.08,29.68,35.67,51.73,67.72,54.09,1.89.14,3.8.21,5.73.21h.02c1.18,0,2.35-.03,3.51-.09,2.34-.1,4.66-.31,6.94-.63,27.83-3.78,50.92-22.49,60.95-47.8,2.92-7.4,4.74-15.36,5.22-23.68.09-1.51.14-3.04.14-4.58,0-1.76-.06-3.51-.18-5.24-.02-.39-.05-.79-.09-1.18-.12-1.52-.29-3.03-.51-4.52-.64-4.53-1.68-8.94-3.08-13.18-2.55-7.69-6.27-14.84-10.96-21.24-3.89-5.3-8.44-10.09-13.54-14.24l-16.27,8.6h0l-3.89,2.06-26.08,13.78-2.17,1.15-7.68,4.05h0s-.48.26-.48.26l-15.07,10.2h-.01s-32.36,21.91-32.36,21.91l-3.2,2.17-16.39,11.09Z"/>
        <path class="cls-8" d="M960.11,152.7c0,1.54-.05,3.07-.14,4.58-.48,8.32-2.3,16.28-5.22,23.68-10.03,25.31-33.12,44.02-60.95,47.8-2.28.32-4.6.53-6.94.63-1.16.06-2.33.09-3.51.09h-.02v-110.79l2.17-1.15,26.08-13.78,3.89-2.06h.01l16.27-8.6c5.1,4.15,9.65,8.94,13.54,14.24,4.69,6.4,8.41,13.55,10.96,21.24,1.4,4.24,2.44,8.65,3.08,13.18.22,1.49.39,3,.51,4.52.04.39.07.79.09,1.18.12,1.73.18,3.48.18,5.24Z"/>
        <path class="cls-2" d="M882.44,263.09c2.49-12.14,5.06-24.31,4.32-36.04-3.65-57.69-36.93-104.84-23.5-86.52,19.03,25.94,35.46,73.69,30.21,122.56h-11.03Z"/>
        <path class="cls-2" d="M888.13,245.72c-23.53-40.16-54.04-64.89-38.42-52.21,12.8,10.39,26.61,24.89,38.71,43.33-.02,2.66-.11,6.19-.29,8.88Z"/>
        <path class="cls-2" d="M890.88,207.89c7.68-14.65,16.5-27.16,25.23-36.44,11.97-12.73-7.97,9.28-23.95,44.48-.38-2.42-.81-5.66-1.27-8.03Z"/>
      </g>
    </g>
  </g>
</svg>