<?xml version="1.0" encoding="UTF-8"?>
<svg id="Layer_3" data-name="Layer 3" xmlns="http://www.w3.org/2000/svg" viewBox="0 0 1028.59 777.54">
  <defs>
    <style>
      .cls-1 {
        fill: #fffdf3;
      }

      .cls-2 {
        fill: #78a14f;
      }

      .cls-3 {
        fill: #736745;
      }

      .cls-4 {
        fill: #fff;
        stroke: #231f20;
        stroke-miterlimit: 10;
      }

      .cls-5 {
        fill: #494646;
      }

      .cls-6 {
        fill: #231f20;
      }

      .cls-7 {
        fill: #d0eff0;
      }

      .cls-8 {
        fill: #a4dfeb;
      }

      .cls-9 {
        fill: #71974b;
      }

      .cls-10 {
        fill: #688548;
      }

      .cls-11 {
        fill: #8ba146;
      }

      .cls-12 {
        fill: #98b04d;
      }

      .cls-13 {
        fill: #86b359;
      }
    </style>
  </defs>
  <g>
    <polygon class="cls-4" points="1025.71 38.56 1025.71 353.83 878.62 315.51 878.27 315.42 878.26 315.42 870.29 313.34 866.11 312.25 866.1 312.25 865.76 312.16 784.17 279.69 782.51 279.03 782.5 279.03 772.24 274.93 772.21 274.92 772.16 274.92 772.15 274.91 764.82 271.99 764.81 271.99 764.8 271.98 756.73 268.77 756.69 268.76 756.67 268.75 755.85 268.42 755.43 268.26 755.42 268.25 732.65 259.19 720.42 254.32 719.9 254.12 719.9 254.11 690.91 242.58 702.94 234.44 720.42 222.61 726.66 218.38 732.18 214.65 742.27 207.82 742.27 207.81 771.82 187.82 776.54 184.62 794.82 172.25 797.08 170.72 800.23 168.59 803.92 166.09 803.93 166.09 806.48 164.36 808.79 162.8 822.87 153.27 826.07 151.1 858.43 129.2 858.44 129.19 873.51 118.99 873.99 118.74 873.99 118.73 881.67 114.68 883.84 113.53 909.92 99.75 913.81 97.69 913.82 97.69 930.09 89.09 933.01 87.55 1025.71 38.56"/>
    <g>
      <path class="cls-8" d="M1026.91,129.85v185.66h-147.29l-.35-.09h0l-7.97-2.08-4.18-1.09h0l-.34-.09-81.59-32.47-1.66-.66h0l-10.26-4.1h-.03s-.05-.01-.05-.01h-.01s-7.33-2.93-7.33-2.93h-.02s-8.07-3.22-8.07-3.22h-.04s-.02-.02-.02-.02l-.82-.33-.42-.16h0s-22.77-9.07-22.77-9.07l-12.23-4.87-.52-.2h0s-28.99-11.54-28.99-11.54l12.03-8.14,17.48-11.83,6.24-4.23,5.52-3.73,10.09-6.83h0s29.55-20,29.55-20l4.72-3.2,18.28-12.37,2.26-1.53,3.15-2.13,3.69-2.5h0l2.55-1.73,2.31-1.56,14.08-9.53,3.2-2.17,32.36-21.9h0s15.07-10.21,15.07-10.21l.48-.25h0s7.68-4.06,7.68-4.06l2.17-1.15,26.08-13.78,3.89-2.06h.01l16.27-8.6,2.92-1.54,92.7-48.99v91.18c.07.03.13.07.2.11Z"/>
      <g>
        <circle class="cls-7" cx="998.37" cy="122.38" r="22.1"/>
        <path class="cls-7" d="M1026.91,129.85v12.42h-1.19c-3.06-2.71-5.42-6.17-6.8-10.09-.12-.31-.21-.62-.31-.92-.17-.54-.33-1.06-.44-1.62-.37-1.52-.6-3.11-.64-4.77-.02-.25-.02-.52-.02-.78,0-3.18.62-6.19,1.73-8.98.02-.08.06-.15.1-.23,1.58-3.88,4.14-7.24,7.37-9.81v24.67c.07.03.13.07.2.11Z"/>
        <path class="cls-7" d="M997.05,143.45c.07-1.03.04-2.06-.13-3.09-1.92-12.05-19.76-19.23-39.85-16.03-15.33,2.44-27.53,10.22-31.6,19.12h71.57Z"/>
        <path class="cls-7" d="M1026.91,129.85v12.42h-101.44l.66-.1,32.54-4.42,2.06-.28,5.86-.79,3.19-.44,10.32-1.41.49-.08,5.69-.76,3.26-.45,3.81-.51h.02l18.85-2.58h0l5.94-.81,1.13-.15,3.17-.44h0l2.4-.33h.02l1.81-.24v1.26c.07.03.13.07.2.11Z"/>
      </g>
      <polygon class="cls-2" points="1002.49 97.47 997.09 124.09 1008.38 124.07 1002.49 97.47"/>
      <polygon class="cls-2" points="1017.28 105.57 1011.87 132.19 1023.17 132.18 1017.28 105.57"/>
      <g>
        <polygon class="cls-9" points="1026.91 153.27 1026.91 341.79 1026.71 341.74 1026.71 353.83 879.62 315.51 879.27 315.42 879.26 315.42 871.29 313.34 867.11 312.25 867.1 312.25 866.76 312.16 785.17 279.69 783.51 279.03 783.5 279.03 773.24 274.93 773.21 274.92 773.16 274.92 773.15 274.91 765.82 271.99 765.81 271.99 765.8 271.98 757.73 268.77 757.69 268.76 757.67 268.75 756.85 268.42 756.43 268.26 756.42 268.25 733.65 259.19 721.42 254.32 720.9 254.12 720.9 254.11 691.91 242.58 703.94 234.44 721.42 222.61 727.66 218.38 733.18 214.65 743.27 207.82 743.27 207.81 772.82 187.82 777.54 184.62 795.82 172.25 798.08 170.72 801.23 168.59 804.92 166.09 804.93 166.09 807.48 164.36 809.79 162.8 823.87 153.27 1026.91 153.27"/>
        <polygon class="cls-13" points="1026.71 341.74 1026.71 353.83 879.62 315.51 879.27 315.42 879.26 315.42 871.29 313.34 867.11 312.25 867.1 312.25 866.76 312.16 785.17 279.69 924.61 315.51 1026.71 341.74"/>
      </g>
      <path class="cls-13" d="M1026.91,129.85v50h-.2s-72.62-2.9-72.62-2.9l-42.45-1.7h0l-2.85-.11h-.01l-26.1-1.04-.67-.03-5.64-.22-67.14-2.68-11.14-.45,3.15-2.13,3.69-2.5h0l2.55-1.73,2.31-1.56,14.08-9.53,3.2-2.17,32.36-21.9h0s15.07-10.21,15.07-10.21l.48-.25h0s7.68-4.06,7.68-4.06l2.17-1.15,26.08-13.78c11.61.77,22.86,1.95,33.71,3.58,12.19,1.84,23.87,4.26,35,7.33,6.51,1.8,12.83,3.82,18.95,6.08,3.04,1.13,6.03,2.31,8.96,3.56h0c2.09.88,4.14,1.8,6.18,2.74,1.28.6,2.55,1.21,3.8,1.83.88.43,1.75.87,2.61,1.32.65.33,1.29.66,1.93,1,.95.5,1.89,1.01,2.83,1.53.61.34,1.21.68,1.81,1.02.07.03.13.07.2.11Z"/>
      <g>
        <ellipse class="cls-10" cx="887.75" cy="259.08" rx="41.79" ry="18.82"/>
        <g>
          <path class="cls-12" d="M807.48,164.36c.48,2.31,1.06,4.58,1.74,6.81,9.08,29.68,35.67,51.73,67.72,54.09,1.89.14,3.8.21,5.73.21h.02c1.18,0,2.35-.03,3.51-.09,2.34-.1,4.66-.31,6.94-.63,27.83-3.78,50.92-22.49,60.95-47.8,2.92-7.4,4.74-15.36,5.22-23.68.09-1.51.14-3.04.14-4.58,0-1.76-.06-3.51-.18-5.24-.02-.39-.05-.79-.09-1.18-.12-1.52-.29-3.03-.51-4.52-.64-4.53-1.68-8.94-3.08-13.18-2.55-7.69-6.27-14.84-10.96-21.24-3.89-5.3-8.44-10.09-13.54-14.24l-16.27,8.6h0l-3.89,2.06-26.08,13.78-2.17,1.15-7.68,4.05h0s-.48.26-.48.26l-15.07,10.2h-.01s-32.36,21.91-32.36,21.91l-3.2,2.17-16.39,11.09Z"/>
          <path class="cls-11" d="M959.45,148.69c0,1.54-.05,3.07-.14,4.58-.48,8.32-2.3,16.28-5.22,23.68-10.03,25.31-33.12,44.02-60.95,47.8-2.28.32-4.6.53-6.94.63-1.16.06-2.33.09-3.51.09h-.02v-110.79l2.17-1.15,26.08-13.78,3.89-2.06h.01l16.27-8.6c5.1,4.15,9.65,8.94,13.54,14.24,4.69,6.4,8.41,13.55,10.96,21.24,1.4,4.24,2.44,8.65,3.08,13.18.22,1.49.39,3,.51,4.52.04.39.07.79.09,1.18.12,1.73.18,3.48.18,5.24Z"/>
          <path class="cls-3" d="M881.78,259.08c2.49-12.14,5.06-24.31,4.32-36.04-3.65-57.69-36.93-104.84-23.5-86.52,19.03,25.94,35.46,73.69,30.21,122.56h-11.03Z"/>
          <path class="cls-3" d="M887.47,241.71c-23.53-40.16-54.04-64.89-38.42-52.21,12.8,10.39,26.61,24.89,38.71,43.33-.02,2.66-.11,6.19-.29,8.88Z"/>
          <path class="cls-3" d="M890.22,203.88c7.68-14.65,16.5-27.16,25.23-36.44,11.97-12.73-7.97,9.28-23.95,44.48-.38-2.42-.81-5.66-1.27-8.03Z"/>
        </g>
      </g>
    </g>
  </g>
  <g>
    <g>
      <path class="cls-5" d="M892.42,183.75c-.01.05-.01.1-.02.15-.03.23-.04.46-.05.69-.22,2.44.11,4.99,1,7.32l5.23,13.61.88,2.32,9.15,23.83,3.88,10.07h0s.39,1.02.39,1.02l.19.51.27.7c1.39,3.66,3.92,6.04,6.71,6.73.69.17,1.38.23,2.08.21.33,0,.66-.05.98-.13.14-.02.28-.04.42-.08.28-.06.57-.15.84-.25.62-.24,1.22-.55,1.82-.98l5.95-4.16.33-.24,1.07-.76c2.63-1.85,3.66-6.24,2.29-9.8l-1.12-2.92-1.78-4.63h0s-2.66-6.95-2.66-6.95l-.37-.96v-.02s0-.01,0-.01l-.3-.75-2.95-7.68v-.02s0-.01,0-.01l-.43-1.13-7.95-20.7v-.03s-.02-.02-.02-.02l-.84-2.2-2.3-5.97-3.09-8.08c-1.09-2.81-3.31-4.26-5.49-3.86-.6.11-1.2.35-1.76.75l-3.82,2.69-.37.26-.33.22-2.82,1.99c-2.75,1.92-4.5,5.4-5,9.23ZM906.84,193.04l10.58,27.57,2.98,7.77.8,2.07h0s0,.01,0,.01l.13.33.62,1.63c.63,1.65.23,3.63-.89,4.6h0c-.07.06-.14.13-.2.19-.65.44-1.36.5-2,.22-.45-.2-.87-.56-1.2-1.06h0s0-.02-.01-.03c-.06-.09-.11-.19-.17-.3-.05-.1-.11-.22-.15-.34l-.05-.13-3.81-9.94-10.35-26.94h0s-3.17-8.26-3.17-8.26c-.67-1.73-.17-3.89,1.12-4.77.63-.47,1.36-.51,2-.24.64.27,1.2.87,1.53,1.75l2.25,5.86h0Z"/>
      <path class="cls-1" d="M918.24,188.72l.02.02v.03s7.96,20.7,7.96,20.7l.43,1.13h.01s0,.03,0,.03l2.95,7.68.3.75h.01s0,.03,0,.03l.37.96,1.47-3.39.02-.03.1-.24c.15-.37.33-.75.52-1.09v-.02c.09-.14.16-.27.24-.39.15-.25.3-.48.47-.72.65-.9,1.39-1.68,2.23-2.27t.01,0s.01,0,.01,0c.04-.04.09-.07.13-.11l4.93-3.35v-.02s2.48-1.68,2.48-1.68l10.71-7.34c2.07-1.45,2.86-4.88,1.79-7.68l-2.85-7.4-.16-.42-.74-1.97h0s-.52-1.36-.52-1.36l-.8-2.09-.48-1.23-.23-.57c-.39-1.03-.98-1.8-1.67-2.33-.01-.01-.03-.02-.04-.03h-.01s-.05-.05-.07-.06h-.01s-.11-.09-.16-.12c-.25-.15-.51-.26-.78-.34-.18-.07-.34-.12-.51-.13l-.1-.03s-.07,0-.1,0c-.08,0-.15-.02-.22-.02s-.15,0-.23,0c-.2.02-.4.05-.6.09-.02,0-.04,0-.06.01t-.02,0c-.09.02-.16.06-.25.08-.08.04-.17.07-.25.1h0c-.19.11-.36.21-.56.33l-5.03,3.41v.02s-.03,0-.03,0h0s-9.26,6.3-9.26,6.3l-3.3,2.24h0c-.12.08-.25.15-.38.22-.13.07-.26.13-.4.19-.12.06-.24.12-.37.16-.01,0-.01,0-.02.01-.15.06-.32.11-.48.17-.2.07-.41.12-.63.16-.22.05-.45.08-.67.11-.23.03-.46.05-.7.04-.24,0-.49-.01-.74-.03-.18-.02-.36-.05-.55-.09-.04,0-.07,0-.11-.02h0s-.06-.02-.09-.03l-.18-.02h-.04s-.11-.02-.11-.02l-3.41-.55.84,2.2ZM935.12,187.56v-.02s5.36-3.76,5.36-3.76c.32-.22.66-.38,1-.47h0c.16-.04.33-.07.52-.09h0s.05,0,.08,0c.06,0,.11,0,.17,0,.04,0,.07,0,.11,0,.07,0,.15,0,.23.02.08.01.16.02.23.05.09.02.18.05.27.08.12.04.23.09.34.16.04,0,.08.01.11.04.03.02.07.04.1.07.02.01.05.02.08.03.02,0,.05.03.07.05.05.03.1.07.15.12.16.11.31.24.46.39.26.27.49.58.7.95.06.11.12.22.17.34.03.06.06.13.08.18.03.05.05.11.08.18l1.73,4.49c.05.15.11.31.16.48.02.06.03.11.04.16,0,.01,0,.03,0,.04t0,.02s.02.09.03.14c0,.03.02.07.02.11v.03c.03.05.03.08.04.14v.03c.08.42.11.82.11,1.27,0,.03,0,.04,0,.06h0c-.01.29-.02.57-.07.83,0,.08-.02.14-.04.23-.04.23-.1.45-.17.67-.02.08-.05.15-.07.22-.08.21-.17.41-.27.62-.05.1-.09.19-.15.29-.32.56-.72,1.04-1.23,1.39l-.71.5-.1.07-.07.12h-.01s-2.78,1.89-2.78,1.89h0s-2.22,1.57-2.22,1.57l-1.62,1.13h0c-.05.05-.11.08-.17.11-.06.04-.12.07-.18.1,0,.02-.03.01-.03.03-.01,0-.02.01-.04.01-.12.06-.22.1-.33.14-.04.01-.08.04-.12.04l-.14.05h0c-.09.02-.17.03-.25.05-.26.03-.52.04-.78.01-.9-.11-1.76-.69-2.39-1.63-.16-.24-.29-.5-.42-.79-.01-.04-.04-.08-.05-.12-.02-.05-.04-.09-.06-.13l-1.38-3.57v-.03s-.01,0-.01,0l-.33-.87c-.05-.11-.09-.23-.12-.35-.04-.1-.07-.21-.09-.32-.03-.11-.06-.22-.08-.34-.01-.05-.03-.1-.03-.16,0-.01,0-.03,0-.03v-.06s-.02-.06-.02-.1c-.02-.17-.05-.35-.05-.52-.01-.18-.01-.35-.01-.53,0-.09,0-.17,0-.26,0-.09.01-.17.02-.25.01-.14.03-.28.05-.41,0-.07.02-.15.03-.21.03-.13.05-.26.09-.4.04-.16.09-.32.14-.48.03-.11.07-.21.12-.31.02-.05.04-.09.06-.14v-.02c.04-.07.07-.14.11-.2.03-.07.07-.13.1-.2v-.02c.27-.47.61-.88,1-1.21.04-.04.08-.08.13-.11s.09-.06.13-.09l1.66-1.17.48-.34h.02Z"/>
    </g>
    <path class="cls-6" d="M959.14,120.96c-4.24,5.23-8.47,10.46-12.71,15.69-.78.97-1.73,1.98-1.75,3.3s.96,2.33,1.85,3.26c2.23,2.34,4.49,4.66,6.77,6.96v-1.77c-4.6,5.25-8.81,10.82-12.6,16.68-.22.34-.25.93,0,1.26,1.73,2.33,3.57,4.57,5.53,6.71,1.09,1.19,2.86-.58,1.77-1.77-1.82-1.98-3.54-4.04-5.14-6.2v1.26c3.68-5.68,7.75-11.08,12.21-16.17.45-.51.5-1.26,0-1.77-1.89-1.91-3.76-3.83-5.62-5.76-.68-.71-2.54-2.03-2.08-3.11.26-.6.9-1.18,1.31-1.69l1.41-1.74c3.61-4.46,7.22-8.91,10.83-13.37,1-1.24-.75-3.02-1.77-1.77h0Z"/>
    <path class="cls-6" d="M946.47,173.33l3.55,5.47c1.12,1.72,2.61,3.5,3.37,5.41.8,2.05.04,4.52-.31,6.59-.37,2.22-.74,4.43-1.11,6.65-.74,4.43-1.49,8.86-2.23,13.29-.35,2.06-.97,4.28-.76,6.38.19,1.88,1.19,3.53,2.04,5.18,2.34,4.53,4.67,9.05,7.01,13.58.74,1.43,2.9.17,2.16-1.26-2.03-3.94-4.07-7.88-6.1-11.83-.9-1.74-2.28-3.67-2.59-5.63-.34-2.13.46-4.62.82-6.73.74-4.43,1.49-8.86,2.23-13.29.37-2.22.74-4.43,1.11-6.65.33-1.99.82-4.06.39-6.07-.47-2.23-2.12-4.19-3.34-6.06l-4.08-6.28c-.87-1.34-3.04-.09-2.16,1.26h0Z"/>
    <path class="cls-6" d="M950.43,209.32c-.71-1.03-1.65-1.91-2.77-2.49-.3-.15-.63-.22-.96-.13-.29.08-.6.3-.75.57-.15.29-.23.64-.13.96.1.3.28.6.57.75.34.18.66.38.96.61l-.25-.2c.43.33.82.72,1.15,1.15l-.2-.25c.07.09.14.18.2.28.19.27.42.48.75.57.3.08.7.05.96-.13s.5-.43.57-.75.06-.69-.13-.96h0Z"/>
    <path class="cls-6" d="M949.96,223.11l-7.31,10.25-3.59,5.02c-1.01,1.42-2.25,2.86-2.25,4.7s.89,3.94,1.41,5.76c.58,2.05,1.17,4.1,1.75,6.14.5,1.74,1.42,3.84.92,5.67s-2.14,3.51-3.33,5.01c-2.92,3.71-5.83,7.42-8.75,11.13-.98,1.25.77,3.03,1.77,1.77,2.61-3.33,5.23-6.65,7.84-9.98,2.22-2.82,5.45-5.83,5.04-9.73-.19-1.87-.85-3.68-1.36-5.48-.58-2.05-1.17-4.1-1.75-6.14-.29-1.02-.63-2.03-.87-3.06-.27-1.14-.1-1.88.53-2.84,1.16-1.73,2.42-3.4,3.63-5.1,2.82-3.95,5.64-7.91,8.46-11.86.94-1.31-1.23-2.56-2.16-1.26h0Z"/>
    <path class="cls-6" d="M951.34,179.88c.43.79,1.28,1.08,2.13.85.93-.26,1.5-.97,2.1-1.67,1.68-1.96,3.36-3.93,5.04-5.89.8-.93,1.59-1.86,2.39-2.79s1.37-2.01,2.71-1.74c2.43.49,4.85,1.33,7.24,1.99,1.55.43,2.22-1.98.66-2.41-2.23-.61-4.45-1.23-6.68-1.84-.99-.27-2.01-.49-3.01-.13s-1.64,1.14-2.29,1.9c-1.5,1.75-3.01,3.51-4.51,5.27-.8.93-1.59,1.86-2.39,2.79-.35.41-.71.83-1.06,1.24-.19.22-.48.46-.61.7-.04.06-.09.1-.16.13-.29.14-.09.26.59.35-.77-1.41-2.93-.15-2.16,1.26h0Z"/>
    <path class="cls-6" d="M952.87,200.79c3.97,1.69,8.02,3.17,12.17,4.35,2.01.57,4.09,1.22,6.18,1.46s3.77-.48,5.47-1.54c3.88-2.41,7.7-4.91,11.55-7.37,1.83-1.17,3.63-2.54,5.58-3.49,2.27-1.11,4.1.54,6.02,1.67,4.53,2.69,9.06,5.39,13.59,8.08,1.39.82,2.64-1.34,1.26-2.16-3.96-2.36-7.93-4.71-11.89-7.07-1.82-1.08-3.69-2.51-5.7-3.21-1.85-.64-3.65-.02-5.27.93-3.9,2.3-7.66,4.88-11.48,7.32-1.87,1.19-3.71,2.48-5.64,3.58-2.12,1.21-4.06.68-6.3.12-4.87-1.24-9.65-2.85-14.28-4.82-1.46-.63-2.74,1.53-1.26,2.16h0Z"/>
    <path class="cls-6" d="M945.82,156.58c-2.35-1.46-4.79-2.76-7.33-3.85-1.2-.52-2.41-1-3.63-1.44s-2.48-.83-3.74-.27c-1.18.52-2.15,1.62-3.1,2.46-1.12.99-2.24,1.99-3.36,2.98-2.36,2.1-4.73,4.2-7.09,6.3-.91.8.05,2.53,1.22,2.09.3-.11.61-.23.91-.34,1.49-.56.85-2.98-.66-2.41-.3.11-.61.23-.91.34l1.22,2.09c3.97-3.53,7.85-7.23,11.95-10.61.62-.51,1.02-.81,1.85-.59.57.15,1.14.39,1.7.59,1.16.43,2.3.9,3.43,1.42,2.18.99,4.28,2.14,6.31,3.4,1.37.85,2.63-1.31,1.26-2.16h0Z"/>
    <path class="cls-6" d="M1005.6,196.17c1.85-1.21,3.71-2.42,5.56-3.64,1.58-1.05,3.16-2.16,4.43-3.57,1.38-1.53,2.21-3.34,3.08-5.18.92-1.93,2-3.77,3.24-5.52.93-1.32-1.24-2.57-2.16-1.26-1.14,1.62-2.16,3.31-3.03,5.09s-1.56,3.63-2.89,5.1c-1.2,1.33-2.68,2.35-4.17,3.34-1.77,1.17-3.54,2.32-5.32,3.48-1.34.88-.09,3.04,1.26,2.16h0Z"/>
    <path class="cls-6" d="M966.25,166.31c.99-3.87,1.64-7.82,1.9-11.81.07-1.03.11-2.07.13-3.1.01-.68-.24-1.58.41-1.94,1.82-1.03,3.82-1.83,5.71-2.74,1.45-.7.18-2.85-1.26-2.16-1.95.93-4.11,1.73-5.94,2.87s-1.37,3.31-1.44,5.13c-.15,4.42-.81,8.79-1.91,13.08-.4,1.56,2.01,2.22,2.41.66h0Z"/>
  </g>
</svg>