<?xml version="1.0" encoding="UTF-8"?>
<svg id="Layer_3" xmlns="http://www.w3.org/2000/svg" version="1.1" viewBox="0 0 1028.6 777.5">
  <!-- Generator: Adobe Illustrator 29.4.0, SVG Export Plug-In . SVG Version: 2.1.0 Build 152)  -->
  <defs>
    <style>
      .st0 {
        fill: #a4dfeb;
      }

      .st1 {
        isolation: isolate;
        opacity: .4;
      }

      .st2 {
        fill: #d0eff0;
      }

      .st3 {
        fill: #8ba146;
      }

      .st4 {
        fill: #86b359;
      }

      .st5 {
        fill: #71974b;
      }

      .st6, .st7 {
        fill: #fff;
      }

      .st8 {
        fill: #78a14f;
      }

      .st7 {
        stroke: #231f20;
        stroke-miterlimit: 10;
      }

      .st9 {
        fill: #736745;
      }

      .st10 {
        fill: #98b04d;
      }

      .st11 {
        fill: #688548;
      }

      .st12 {
        fill: #fff200;
      }
    </style>
  </defs>
  <g>
    <polygon class="st7" points="1026.4 42.6 1026.4 357.8 879.3 319.5 878.9 319.4 878.9 319.4 871 317.4 866.8 316.3 866.8 316.3 866.4 316.2 784.8 283.7 783.2 283 783.2 283 772.9 278.9 772.9 278.9 772.8 278.9 772.8 278.9 765.5 276 765.5 276 765.5 276 757.4 272.8 757.3 272.8 757.3 272.8 756.5 272.4 756.1 272.3 756.1 272.3 733.3 263.2 721.1 258.3 720.6 258.1 720.6 258.1 691.6 246.6 703.6 238.4 721.1 226.6 727.3 222.4 732.8 218.7 742.9 211.8 742.9 211.8 772.5 191.8 777.2 188.6 795.5 176.3 797.7 174.7 800.9 172.6 804.6 170.1 804.6 170.1 807.1 168.4 809.5 166.8 823.5 157.3 826.7 155.1 859.1 133.2 859.1 133.2 874.2 123 874.7 122.8 874.7 122.7 882.3 118.7 884.5 117.5 910.6 103.8 914.5 101.7 914.5 101.7 930.8 93.1 933.7 91.6 1026.4 42.6"/>
    <g>
      <path class="st0" d="M1027.6,133.9h0v185.7h-147.6c0,0,0,0,0,0l-8-2.1-4.2-1.1h-.3c0,0-81.5-32.5-81.5-32.5h0l-1.7-.7-10.3-4.1h0s0,0,0,0l-7.3-2.9h0l-8-3.2h0s-.8-.3-.8-.3l-.4-.2h0l-22.7-9.1-12.2-4.9-.5-.2h0l-29-11.5,12-8.1,17.5-11.8,6.2-4.2,5.5-3.7,10.1-6.8,29.5-20,4.7-3.2,18.3-12.4,2.3-1.5,3.2-2.1,3.7-2.5,2.5-1.7h0s2.3-1.6,2.3-1.6l14.1-9.5,3.2-2.2,32.4-21.9,15.1-10.2h0l.5-.2,7.7-4.1h0s2.2-1.2,2.2-1.2h0l26.1-13.8h0l3.9-2.1h0l16.3-8.6h0l2.9-1.6,91.7-48.5,1-.5v91.2c0,0,.1,0,.2.1h0Z"/>
      <g>
        <circle class="st2" cx="999" cy="126.4" r="22.1"/>
        <path class="st2" d="M1027.6,133.9v12.4h-1.2c-3.1-2.7-5.4-6.2-6.8-10.1-.1-.3-.2-.6-.3-.9-.2-.5-.3-1.1-.4-1.6-.4-1.5-.6-3.1-.6-4.8h0c0-.3,0-.5,0-.8,0-3.2.6-6.2,1.7-9,0,0,0-.2,0-.2,1.4-3.5,3.6-6.5,6.4-9,.3-.3.7-.6,1-.8v24.7c0,0,.1,0,.2.1h0Z"/>
        <path class="st2" d="M997.7,147.5c0-1,0-2.1-.1-3.1-1.9-12.1-19.8-19.2-39.8-16-15.3,2.4-27.5,10.2-31.6,19.1h71.6,0Z"/>
        <path class="st2" d="M1027.6,133.9v12.4h-101.4.7c0-.1,32.5-4.5,32.5-4.5l2.1-.3,5.9-.8,3.2-.4,10.3-1.4h.5c0,0,5.7-.8,5.7-.8l3.3-.4,3.8-.5h0l18.8-2.6h0l5.9-.8h1.1c0-.1,0-.1,0-.1l3.2-.4h0l2.4-.3h.8c0-.1,1-.2,1-.2v1.3c0,0,.1,0,.2.1h0Z"/>
      </g>
      <polygon class="st8" points="1003.2 101.5 997.8 128.1 1009 128.1 1003.2 101.5"/>
      <polygon class="st8" points="1017.9 109.6 1012.5 136.2 1023.8 136.2 1017.9 109.6"/>
      <g>
        <polygon class="st5" points="1027.6 157.3 1027.6 345.8 1027.4 345.8 1027.4 357.8 1026.4 357.6 880.3 319.5 879.9 319.4 879.9 319.4 872 317.4 867.8 316.3 867.8 316.3 867.4 316.2 867.4 316.2 785.8 283.7 784.2 283 784.2 283 773.9 278.9 773.9 278.9 773.8 278.9 773.8 278.9 766.5 276 766.5 276 766.5 276 758.4 272.8 758.4 272.8 758.3 272.8 758.3 272.8 757.5 272.4 757.1 272.3 757.1 272.3 734.3 263.2 722.1 258.3 721.6 258.1 721.6 258.1 692.6 246.6 704.6 238.4 722.1 226.6 728.3 222.4 733.8 218.7 743.9 211.8 743.9 211.8 773.5 191.8 778.2 188.6 796.5 176.3 798.7 174.7 798.8 174.7 801.9 172.6 805.6 170.1 808.1 168.4 808.2 168.4 824.5 157.3 1027.6 157.3"/>
        <polygon class="st4" points="1027.4 345.8 1027.4 357.8 1026.4 357.6 880.3 319.5 879.9 319.4 879.9 319.4 872 317.4 867.8 316.3 867.8 316.3 867.4 316.2 867.4 316.2 785.8 283.7 785.8 283.7 785.9 283.7 925.3 319.5 1026.4 345.5 1027.4 345.8"/>
      </g>
      <path class="st4" d="M1027.6,133.9v50h-1.2s-71.6-2.9-71.6-2.9l-42.4-1.7h-2.9c0-.1,0-.1,0-.1l-26.1-1h-.7s0,0,0,0l-5.6-.2h0l-67.1-2.7h0l-11.1-.4h0l3.2-2.1,3.7-2.5,2.5-1.7h0l16.4-11.1,3.2-2.2,32.4-21.9h0l15-10.2.5-.2h0l7.7-4.1h0l2.2-1.2h0l26.1-13.8h0c11.6.8,22.8,1.9,33.7,3.6h0c12.2,1.8,23.9,4.3,35,7.3h0c6.5,1.8,12.8,3.8,18.9,6.1h0c3,1.1,6,2.3,9,3.6,0,0,0,0,0,0,2.1.9,4.1,1.8,6.2,2.7,0,0,0,0,0,0,1.3.6,2.5,1.2,3.8,1.8,0,0,0,0,0,0,.9.4,1.7.9,2.6,1.3,0,0,0,0,0,0,.6.3,1.3.6,1.9,1,0,0,0,0,0,0,.9.5,1.9,1,2.8,1.5.3.2.6.3.8.5.3.2.7.4,1,.6,0,0,.1,0,.2.1h0Z"/>
      <g>
        <ellipse class="st11" cx="888.4" cy="263.1" rx="41.8" ry="18.8"/>
        <g>
          <path class="st10" d="M808.1,168.4c.5,2.3,1.1,4.6,1.7,6.8,9.1,29.7,35.7,51.7,67.7,54.1,1.9.1,3.8.2,5.7.2h0c1.2,0,2.3,0,3.5,0,2.3-.1,4.7-.3,6.9-.6,27.8-3.8,50.9-22.5,61-47.8,2.9-7.4,4.7-15.4,5.2-23.7,0-1.5.1-3,.1-4.6s0-3.5-.2-5.2c0-.4,0-.8,0-1.2-.1-1.5-.3-3-.5-4.5-.6-4.5-1.7-8.9-3.1-13.2-2.5-7.7-6.3-14.8-11-21.2-3.9-5.3-8.4-10.1-13.5-14.2l-16.3,8.6h0l-3.9,2.1-26.1,13.8-2.2,1.2-7.7,4.1h0l-.5.3-15.1,10.2h0l-32.4,21.9-3.2,2.2-16.4,11.1h0Z"/>
          <path class="st3" d="M960.1,152.7c0,1.5,0,3.1-.1,4.6-.5,8.3-2.3,16.3-5.2,23.7-10,25.3-33.1,44-61,47.8-2.3.3-4.6.5-6.9.6-1.2,0-2.3,0-3.5,0h0v-110.8l2.2-1.2,26.1-13.8,3.9-2.1h0l16.3-8.6c5.1,4.2,9.7,8.9,13.5,14.2,4.7,6.4,8.4,13.6,11,21.2,1.4,4.2,2.4,8.6,3.1,13.2.2,1.5.4,3,.5,4.5,0,.4,0,.8,0,1.2.1,1.7.2,3.5.2,5.2h0Z"/>
          <path class="st9" d="M882.4,263.1c2.5-12.1,5.1-24.3,4.3-36-3.7-57.7-36.9-104.8-23.5-86.5,19,25.9,35.5,73.7,30.2,122.6h-11Z"/>
          <path class="st9" d="M888.1,245.7c-23.5-40.2-54-64.9-38.4-52.2,12.8,10.4,26.6,24.9,38.7,43.3,0,2.7-.1,6.2-.3,8.9h0Z"/>
          <path class="st9" d="M890.9,207.9c7.7-14.6,16.5-27.2,25.2-36.4,12-12.7-8,9.3-24,44.5-.4-2.4-.8-5.7-1.3-8h0Z"/>
        </g>
      </g>
    </g>
  </g>
  <g class="st1">
    <polygon class="st6" points="1023.9 354.3 1023.9 354.6 879.2 316.9 867.2 313.8 783.6 280.5 773.4 276.4 773.3 276.4 766 273.5 765.9 273.5 757.4 270.1 756.8 269.9 722 256 721.5 255.8 696.9 246 722.5 228.7 728.7 224.5 773.9 193.9 778.6 190.7 805.3 172.6 806 172.2 808.5 170.4 810.8 168.9 860.5 135.3 875.4 125.2 911.7 106 915.1 104.2 915.6 103.9 1023.9 46.7 1023.9 47.3 1024.9 46.7 1024.9 135.4 1025.1 135.5 1025.1 342.6 1024.9 342.6 1024.9 354.6 1023.9 354.3"/>
    <path class="st12" d="M1021.4,50.9v.5l1-.5v86.2h.2v202.3h-.2s0,6.4,0,6.4v5.6l-1-.3v.3l-140.8-36.7h-.3c0,0-.3-.2-.3-.2l-7.6-2-4.2-1.1h0s-81.3-32.4-81.3-32.4l-1.7-.7-.6-.2-9.6-3.9-.9-.4h0l-6.5-2.6-.9-.4h0l-7.2-2.9h-.2c0,0-.7-.3-.7-.3h0s0,0,0,0l-.4-.2h-.2c0,0-22.6-9-22.6-9l-12.2-4.9h0s0,0,0,0l-.5-.2-20.2-8,4.2-2.8,17.5-11.8,6.2-4.2,5.5-3.7,10.1-6.8,29.6-20,4.7-3.2,18.3-12.4,2.3-1.5,3.2-2.1,2.4-1.6h0l1.3-.9,2.5-1.7,2.3-1.6,14.1-9.5,3.2-2.2,32.4-21.9,14.8-10h.3c0-.1,7.7-4.2,7.7-4.2l2.2-1.1,26.1-13.8,2.8-1.5h0l1.1-.6,16.3-8.6,2.9-1.5,85.4-45.1M1027.4,42.6l-1,.5v-.5l-92.7,49-2.9,1.5-16.3,8.6h0l-3.9,2.1-26.1,13.8-2.2,1.2-7.7,4.1-.5.2-15.1,10.2-32.4,21.9-3.2,2.2-14.1,9.5-2.3,1.6-2.5,1.7h0l-3.7,2.5-3.2,2.1-2.3,1.5-18.3,12.4-4.7,3.2-29.5,20-10.1,6.8-5.5,3.7-6.2,4.2-17.5,11.8-12,8.1,29,11.5.5.2,12.2,4.9,22.8,9.1h0l.4.2.8.3h0s0,0,0,0l8.1,3.2h0l7.3,2.9h0s0,0,0,0l10.3,4.1h0l1.7.7,81.6,32.5h.3c0,0,0,0,0,0l4.2,1.1,8,2.1h.4c0,0,147.1,38.4,147.1,38.4v-.3l1,.3v-12.1h.2s0-211.9,0-211.9h0c0,0-.1,0-.2-.1V42.6h0ZM1027.6,133.9h0s0,0,0,0h0Z"/>
  </g>
</svg>