<?xml version="1.0" encoding="UTF-8"?>
<svg id="Layer_3" xmlns="http://www.w3.org/2000/svg" version="1.1" viewBox="0 0 87.9 87.9">
  <!-- Generator: Adobe Illustrator 29.4.0, SVG Export Plug-In . SVG Version: 2.1.0 Build 152)  -->
  <defs>
    <style>
      .st0 {
        fill: #fffdf3;
      }

      .st1 {
        fill: #494646;
      }
    </style>
  </defs>
  <path class="st1" d="M78.7,27.5L25.6,2.5c-6.5-3-14.1-.3-17.2,6.2l-4.8,10.1c-1.7,3.6-.1,8,3.5,9.7l63.3,29.8c3.6,1.7,8,.2,9.7-3.5l4.8-10.1c3-6.5.3-14.1-6.2-17.2h0ZM72.2,40.6c-.8.3-1.8.3-2.7-.1L23.4,18.8c-1.8-.8-2.5-2.9-1.7-4.7.4-.9,1.2-1.5,2-1.8.8-.3,1.8-.3,2.7.1l46.2,21.7c1.8.8,2.5,3,1.7,4.7-.4.9-1.2,1.5-2,1.8h0Z"/>
  <path class="st0" d="M22,35.4l.5,4.2c.3,2.3,0,4.6-1.1,6.7l-12,24.7c-1.3,2.8-.1,6.2,2.7,7.6l15.3,7.2c2.8,1.3,6.2.1,7.6-2.7l11.7-24c.9-1.7,2.5-3.6,5-5l4.4-2.6-34.2-16.1h0ZM33,72.6c-1.2,2.5-4.1,3.6-6.6,2.4l-4.6-2.2c-2.5-1.2-3.5-4.1-2.4-6.6l4.9-10.4c1.2-2.5,4.1-3.6,6.6-2.4l4.6,2.2c2.5,1.2,3.6,4.1,2.4,6.6,0,0-4.9,10.4-4.9,10.4Z"/>
</svg>